<?xml version="1.0" encoding="UTF-8" standalone="no"?>
<!DOCTYPE svg PUBLIC "-//W3C//DTD SVG 1.1//EN"
 "http://www.w3.org/Graphics/SVG/1.1/DTD/svg11.dtd">
<!-- Generated by graphviz version 13.1.0 (20250701.0955)
 -->
<!-- Title: adxl362_fifo_init Pages: 1 -->
<svg width="275pt" height="1500pt"
 viewBox="0.00 0.00 275.00 1500.00" xmlns="http://www.w3.org/2000/svg" xmlns:xlink="http://www.w3.org/1999/xlink">
<g id="graph0" class="graph" transform="scale(1 1) rotate(0) translate(4 1496)">
<title>adxl362_fifo_init</title>
<!-- Node1 -->
<g id="Node000001" class="node">
<title>Node1</title>
<g id="a_Node000001"><a xlink:title="fifo example init">
<polygon fill="#999999" stroke="#666666" points="86.5,-774 0,-774 0,-754 86.5,-754 86.5,-774"/>
<text xml:space="preserve" text-anchor="middle" x="43.25" y="-760.5" font-family="Helvetica,sans-Serif" font-size="10.00">adxl362_fifo_init</text>
</a>
</g>
</g>
<!-- Node2 -->
<g id="Node000002" class="node">
<title>Node2</title>
<g id="a_Node000002"><a xlink:href="group__adxl362__basic__driver.html#gafb79238b7df22b689d36ba3dc2ed33ae" target="_top" xlink:title="close the chip">
<polygon fill="white" stroke="#666666" points="233.75,-1492 155.5,-1492 155.5,-1472 233.75,-1472 233.75,-1492"/>
<text xml:space="preserve" text-anchor="middle" x="194.62" y="-1478.5" font-family="Helvetica,sans-Serif" font-size="10.00">adxl362_deinit</text>
</a>
</g>
</g>
<!-- Node1&#45;&gt;Node2 -->
<g id="edge1_Node000001_Node000002" class="edge">
<title>Node1&#45;&gt;Node2</title>
<g id="a_edge1_Node000001_Node000002"><a xlink:title=" ">
<path fill="none" stroke="#63b8ff" d="M44.71,-774.33C48.49,-856.93 75.35,-1408.22 122.5,-1463 128.18,-1469.6 135.88,-1474.03 144.11,-1476.99"/>
<polygon fill="#63b8ff" stroke="#63b8ff" points="143.09,-1480.34 153.67,-1479.66 144.98,-1473.59 143.09,-1480.34"/>
</a>
</g>
</g>
<!-- Node3 -->
<g id="Node000003" class="node">
<title>Node3</title>
<g id="a_Node000003"><a xlink:href="group__adxl362__basic__driver.html#ga506084e26ed22be0b8b29a88dad1d726" target="_top" xlink:title="initialize the chip">
<polygon fill="white" stroke="#666666" points="228.5,-1454 160.75,-1454 160.75,-1434 228.5,-1434 228.5,-1454"/>
<text xml:space="preserve" text-anchor="middle" x="194.62" y="-1440.5" font-family="Helvetica,sans-Serif" font-size="10.00">adxl362_init</text>
</a>
</g>
</g>
<!-- Node1&#45;&gt;Node3 -->
<g id="edge2_Node000001_Node000003" class="edge">
<title>Node1&#45;&gt;Node3</title>
<g id="a_edge2_Node000001_Node000003"><a xlink:title=" ">
<path fill="none" stroke="#63b8ff" d="M44.76,-774.02C48.9,-853 77.77,-1373.36 122.5,-1425 129.38,-1432.95 139.18,-1437.75 149.32,-1440.6"/>
<polygon fill="#63b8ff" stroke="#63b8ff" points="148.33,-1443.97 158.85,-1442.68 149.82,-1437.13 148.33,-1443.97"/>
</a>
</g>
</g>
<!-- Node4 -->
<g id="Node000004" class="node">
<title>Node4</title>
<g id="a_Node000004"><a xlink:href="group__adxl362__interface__driver.html#ga5283f1a5c7e10c84d63f7dc39ae0638b" target="_top" xlink:title="interface print format data">
<polygon fill="white" stroke="#666666" points="256.62,-1416 132.62,-1416 132.62,-1384 256.62,-1384 256.62,-1416"/>
<text xml:space="preserve" text-anchor="start" x="140.62" y="-1402.5" font-family="Helvetica,sans-Serif" font-size="10.00">adxl362_interface_debug</text>
<text xml:space="preserve" text-anchor="middle" x="194.62" y="-1390.5" font-family="Helvetica,sans-Serif" font-size="10.00">_print</text>
</a>
</g>
</g>
<!-- Node1&#45;&gt;Node4 -->
<g id="edge3_Node000001_Node000004" class="edge">
<title>Node1&#45;&gt;Node4</title>
<g id="a_edge3_Node000001_Node000004"><a xlink:title=" ">
<path fill="none" stroke="#63b8ff" d="M44.14,-774.14C43.6,-845.94 43.65,-1277.51 122.5,-1375 122.94,-1375.54 123.39,-1376.07 123.85,-1376.59"/>
<polygon fill="#63b8ff" stroke="#63b8ff" points="121.3,-1379.01 131.11,-1383.01 125.94,-1373.76 121.3,-1379.01"/>
</a>
</g>
</g>
<!-- Node5 -->
<g id="Node000005" class="node">
<title>Node5</title>
<g id="a_Node000005"><a xlink:href="group__adxl362__interface__driver.html#ga29e7b7e01bd947f1b4ce978dde67abcf" target="_top" xlink:title="interface delay ms">
<polygon fill="white" stroke="#666666" points="264.5,-1366 124.75,-1366 124.75,-1346 264.5,-1346 264.5,-1366"/>
<text xml:space="preserve" text-anchor="middle" x="194.62" y="-1352.5" font-family="Helvetica,sans-Serif" font-size="10.00">adxl362_interface_delay_ms</text>
</a>
</g>
</g>
<!-- Node1&#45;&gt;Node5 -->
<g id="edge4_Node000001_Node000005" class="edge">
<title>Node1&#45;&gt;Node5</title>
<g id="a_edge4_Node000001_Node000005"><a xlink:title=" ">
<path fill="none" stroke="#63b8ff" d="M44.16,-774.46C43.77,-844.84 44.97,-1249.09 122.5,-1337 123.07,-1337.65 123.66,-1338.27 124.27,-1338.88"/>
<polygon fill="#63b8ff" stroke="#63b8ff" points="121.81,-1341.41 131.87,-1344.74 126.09,-1335.86 121.81,-1341.41"/>
</a>
</g>
</g>
<!-- Node6 -->
<g id="Node000006" class="node">
<title>Node6</title>
<g id="a_Node000006"><a xlink:href="group__adxl362__interface__driver.html#ga262246f67f1493797eb53cce56bce778" target="_top" xlink:title="interface spi bus deinit">
<polygon fill="white" stroke="#666666" points="249.88,-1328 139.38,-1328 139.38,-1296 249.88,-1296 249.88,-1328"/>
<text xml:space="preserve" text-anchor="start" x="147.38" y="-1314.5" font-family="Helvetica,sans-Serif" font-size="10.00">adxl362_interface_spi</text>
<text xml:space="preserve" text-anchor="middle" x="194.62" y="-1302.5" font-family="Helvetica,sans-Serif" font-size="10.00">_deinit</text>
</a>
</g>
</g>
<!-- Node1&#45;&gt;Node6 -->
<g id="edge5_Node000001_Node000006" class="edge">
<title>Node1&#45;&gt;Node6</title>
<g id="a_edge5_Node000001_Node000006"><a xlink:title=" ">
<path fill="none" stroke="#63b8ff" d="M44.39,-774.33C45.47,-840.51 54.51,-1204.73 122.5,-1287 124.61,-1289.55 127,-1291.85 129.59,-1293.91"/>
<polygon fill="#63b8ff" stroke="#63b8ff" points="127.5,-1296.72 137.8,-1299.22 131.31,-1290.85 127.5,-1296.72"/>
</a>
</g>
</g>
<!-- Node7 -->
<g id="Node000007" class="node">
<title>Node7</title>
<g id="a_Node000007"><a xlink:href="group__adxl362__interface__driver.html#ga27d300b48903bd4c91c3ae687e7b2a8b" target="_top" xlink:title="interface spi bus init">
<polygon fill="white" stroke="#666666" points="258.88,-1278 130.38,-1278 130.38,-1258 258.88,-1258 258.88,-1278"/>
<text xml:space="preserve" text-anchor="middle" x="194.62" y="-1264.5" font-family="Helvetica,sans-Serif" font-size="10.00">adxl362_interface_spi_init</text>
</a>
</g>
</g>
<!-- Node1&#45;&gt;Node7 -->
<g id="edge6_Node000001_Node000007" class="edge">
<title>Node1&#45;&gt;Node7</title>
<g id="a_edge6_Node000001_Node000007"><a xlink:title=" ">
<path fill="none" stroke="#63b8ff" d="M44.44,-774.46C45.84,-838.37 56.31,-1175.75 122.5,-1249 123.08,-1249.64 123.68,-1250.26 124.29,-1250.86"/>
<polygon fill="#63b8ff" stroke="#63b8ff" points="121.87,-1253.42 131.95,-1256.67 126.1,-1247.84 121.87,-1253.42"/>
</a>
</g>
</g>
<!-- Node8 -->
<g id="Node000008" class="node">
<title>Node8</title>
<g id="a_Node000008"><a xlink:href="group__adxl362__interface__driver.html#ga20cdc94dfe4d6359a235d8b97b75509a" target="_top" xlink:title="interface spi bus read">
<polygon fill="white" stroke="#666666" points="261.88,-1240 127.38,-1240 127.38,-1220 261.88,-1220 261.88,-1240"/>
<text xml:space="preserve" text-anchor="middle" x="194.62" y="-1226.5" font-family="Helvetica,sans-Serif" font-size="10.00">adxl362_interface_spi_read</text>
</a>
</g>
</g>
<!-- Node1&#45;&gt;Node8 -->
<g id="edge7_Node000001_Node000008" class="edge">
<title>Node1&#45;&gt;Node8</title>
<g id="a_edge7_Node000001_Node000008"><a xlink:title=" ">
<path fill="none" stroke="#63b8ff" d="M44.6,-774.43C46.84,-835.28 61.17,-1144.04 122.5,-1211 123.08,-1211.64 123.68,-1212.25 124.3,-1212.85"/>
<polygon fill="#63b8ff" stroke="#63b8ff" points="121.9,-1215.42 132,-1218.63 126.11,-1209.83 121.9,-1215.42"/>
</a>
</g>
</g>
<!-- Node9 -->
<g id="Node000009" class="node">
<title>Node9</title>
<g id="a_Node000009"><a xlink:href="group__adxl362__interface__driver.html#gaa018ac4218e07d4561318215032cb3f1" target="_top" xlink:title="interface spi bus read">
<polygon fill="white" stroke="#666666" points="249.88,-1202 139.38,-1202 139.38,-1170 249.88,-1170 249.88,-1202"/>
<text xml:space="preserve" text-anchor="start" x="147.38" y="-1188.5" font-family="Helvetica,sans-Serif" font-size="10.00">adxl362_interface_spi</text>
<text xml:space="preserve" text-anchor="middle" x="194.62" y="-1176.5" font-family="Helvetica,sans-Serif" font-size="10.00">_read_address16</text>
</a>
</g>
</g>
<!-- Node1&#45;&gt;Node9 -->
<g id="edge8_Node000001_Node000009" class="edge">
<title>Node1&#45;&gt;Node9</title>
<g id="a_edge8_Node000001_Node000009"><a xlink:title=" ">
<path fill="none" stroke="#63b8ff" d="M44.92,-774.29C48.78,-830.5 69.84,-1100.19 122.5,-1161 124.56,-1163.38 126.86,-1165.53 129.33,-1167.47"/>
<polygon fill="#63b8ff" stroke="#63b8ff" points="127.37,-1170.38 137.68,-1172.84 131.16,-1164.49 127.37,-1170.38"/>
</a>
</g>
</g>
<!-- Node10 -->
<g id="Node000010" class="node">
<title>Node10</title>
<g id="a_Node000010"><a xlink:href="group__adxl362__interface__driver.html#ga2e1918bc77d354ac7c4606ef8490765c" target="_top" xlink:title="interface spi bus write">
<polygon fill="white" stroke="#666666" points="249.88,-1152 139.38,-1152 139.38,-1120 249.88,-1120 249.88,-1152"/>
<text xml:space="preserve" text-anchor="start" x="147.38" y="-1138.5" font-family="Helvetica,sans-Serif" font-size="10.00">adxl362_interface_spi</text>
<text xml:space="preserve" text-anchor="middle" x="194.62" y="-1126.5" font-family="Helvetica,sans-Serif" font-size="10.00">_write_address16</text>
</a>
</g>
</g>
<!-- Node1&#45;&gt;Node10 -->
<g id="edge9_Node000001_Node000010" class="edge">
<title>Node1&#45;&gt;Node10</title>
<g id="a_edge9_Node000001_Node000010"><a xlink:title=" ">
<path fill="none" stroke="#63b8ff" d="M45.24,-774.33C50.42,-826.3 75.9,-1058.64 122.5,-1111 124.59,-1113.35 126.91,-1115.48 129.41,-1117.4"/>
<polygon fill="#63b8ff" stroke="#63b8ff" points="127.49,-1120.33 137.81,-1122.73 131.24,-1114.42 127.49,-1120.33"/>
</a>
</g>
</g>
<!-- Node11 -->
<g id="Node000011" class="node">
<title>Node11</title>
<g id="a_Node000011"><a xlink:href="group__adxl362__basic__driver.html#gaddb0b038493d4e43ef3aa9ed1c09d2b6" target="_top" xlink:title="enable or disable activity">
<polygon fill="white" stroke="#666666" points="247.25,-1102 142,-1102 142,-1082 247.25,-1082 247.25,-1102"/>
<text xml:space="preserve" text-anchor="middle" x="194.62" y="-1088.5" font-family="Helvetica,sans-Serif" font-size="10.00">adxl362_set_activity</text>
</a>
</g>
</g>
<!-- Node1&#45;&gt;Node11 -->
<g id="edge10_Node000001_Node000011" class="edge">
<title>Node1&#45;&gt;Node11</title>
<g id="a_edge10_Node000001_Node000011"><a xlink:title=" ">
<path fill="none" stroke="#63b8ff" d="M45.45,-774.22C51.34,-822.66 78.67,-1028.59 122.5,-1073 125.15,-1075.68 128.13,-1078 131.34,-1080"/>
<polygon fill="#63b8ff" stroke="#63b8ff" points="129.64,-1083.07 140.15,-1084.42 132.78,-1076.81 129.64,-1083.07"/>
</a>
</g>
</g>
<!-- Node12 -->
<g id="Node000012" class="node">
<title>Node12</title>
<g id="a_Node000012"><a xlink:href="group__adxl362__basic__driver.html#gab816ec16044e5007a7d6184446373bf0" target="_top" xlink:title="set the activity detect trigger mode">
<polygon fill="white" stroke="#666666" points="247.25,-1064 142,-1064 142,-1032 247.25,-1032 247.25,-1064"/>
<text xml:space="preserve" text-anchor="start" x="150" y="-1050.5" font-family="Helvetica,sans-Serif" font-size="10.00">adxl362_set_activity</text>
<text xml:space="preserve" text-anchor="middle" x="194.62" y="-1038.5" font-family="Helvetica,sans-Serif" font-size="10.00">_detect_trigger</text>
</a>
</g>
</g>
<!-- Node1&#45;&gt;Node12 -->
<g id="edge11_Node000001_Node000012" class="edge">
<title>Node1&#45;&gt;Node12</title>
<g id="a_edge11_Node000001_Node000012"><a xlink:title=" ">
<path fill="none" stroke="#63b8ff" d="M44.23,-774.27C44.71,-812.59 51.56,-948.83 122.5,-1023 125.25,-1025.88 128.35,-1028.42 131.69,-1030.68"/>
<polygon fill="#63b8ff" stroke="#63b8ff" points="129.83,-1033.65 140.26,-1035.54 133.29,-1027.56 129.83,-1033.65"/>
</a>
</g>
</g>
<!-- Node13 -->
<g id="Node000013" class="node">
<title>Node13</title>
<g id="a_Node000013"><a xlink:href="group__adxl362__basic__driver.html#ga7cb81a252dd49dc770ad8335acae9caf" target="_top" xlink:title="set the activity threshold">
<polygon fill="white" stroke="#666666" points="247.25,-1014 142,-1014 142,-982 247.25,-982 247.25,-1014"/>
<text xml:space="preserve" text-anchor="start" x="150" y="-1000.5" font-family="Helvetica,sans-Serif" font-size="10.00">adxl362_set_activity</text>
<text xml:space="preserve" text-anchor="middle" x="194.62" y="-988.5" font-family="Helvetica,sans-Serif" font-size="10.00">_threshold</text>
</a>
</g>
</g>
<!-- Node1&#45;&gt;Node13 -->
<g id="edge12_Node000001_Node000013" class="edge">
<title>Node1&#45;&gt;Node13</title>
<g id="a_edge12_Node000001_Node000013"><a xlink:title=" ">
<path fill="none" stroke="#63b8ff" d="M45.1,-774.34C48.39,-807.91 63.28,-914.97 122.5,-973 125.3,-975.74 128.41,-978.18 131.73,-980.35"/>
<polygon fill="#63b8ff" stroke="#63b8ff" points="129.77,-983.27 140.21,-985.07 133.17,-977.15 129.77,-983.27"/>
</a>
</g>
</g>
<!-- Node14 -->
<g id="Node000014" class="node">
<title>Node14</title>
<g id="a_Node000014"><a xlink:href="group__adxl362__basic__driver.html#ga8fe096454d1219f84b7e642ce0c1e4b1" target="_top" xlink:title="set the activity time">
<polygon fill="white" stroke="#666666" points="259.25,-964 130,-964 130,-944 259.25,-944 259.25,-964"/>
<text xml:space="preserve" text-anchor="middle" x="194.62" y="-950.5" font-family="Helvetica,sans-Serif" font-size="10.00">adxl362_set_activity_time</text>
</a>
</g>
</g>
<!-- Node1&#45;&gt;Node14 -->
<g id="edge13_Node000001_Node000014" class="edge">
<title>Node1&#45;&gt;Node14</title>
<g id="a_edge13_Node000001_Node000014"><a xlink:title=" ">
<path fill="none" stroke="#63b8ff" d="M45.85,-774.29C51.02,-804.03 70.12,-890.76 122.5,-935 123.78,-936.08 125.12,-937.1 126.5,-938.07"/>
<polygon fill="#63b8ff" stroke="#63b8ff" points="124.48,-940.94 134.9,-942.88 127.96,-934.87 124.48,-940.94"/>
</a>
</g>
</g>
<!-- Node15 -->
<g id="Node000015" class="node">
<title>Node15</title>
<g id="a_Node000015"><a xlink:href="group__adxl362__basic__driver.html#gae02655258f9e2e31bc71e1f7a2e637b9" target="_top" xlink:title="enable or disable auto sleep">
<polygon fill="white" stroke="#666666" points="255.12,-926 134.12,-926 134.12,-906 255.12,-906 255.12,-926"/>
<text xml:space="preserve" text-anchor="middle" x="194.62" y="-912.5" font-family="Helvetica,sans-Serif" font-size="10.00">adxl362_set_auto_sleep</text>
</a>
</g>
</g>
<!-- Node1&#45;&gt;Node15 -->
<g id="edge14_Node000001_Node000015" class="edge">
<title>Node1&#45;&gt;Node15</title>
<g id="a_edge14_Node000001_Node000015"><a xlink:title=" ">
<path fill="none" stroke="#63b8ff" d="M47.24,-774.14C55.14,-799.11 78.99,-863.92 122.5,-897 124.22,-898.31 126.02,-899.52 127.88,-900.65"/>
<polygon fill="#63b8ff" stroke="#63b8ff" points="125.81,-903.52 136.3,-904.96 128.99,-897.29 125.81,-903.52"/>
</a>
</g>
</g>
<!-- Node16 -->
<g id="Node000016" class="node">
<title>Node16</title>
<g id="a_Node000016"><a xlink:href="group__adxl362__basic__driver.html#gafafaaf950e977fd12f614577948f7744" target="_top" xlink:title="set the filter bandwidth">
<polygon fill="white" stroke="#666666" points="253.62,-888 135.62,-888 135.62,-868 253.62,-868 253.62,-888"/>
<text xml:space="preserve" text-anchor="middle" x="194.62" y="-874.5" font-family="Helvetica,sans-Serif" font-size="10.00">adxl362_set_bandwidth</text>
</a>
</g>
</g>
<!-- Node1&#45;&gt;Node16 -->
<g id="edge15_Node000001_Node000016" class="edge">
<title>Node1&#45;&gt;Node16</title>
<g id="a_edge15_Node000001_Node000016"><a xlink:title=" ">
<path fill="none" stroke="#63b8ff" d="M49.83,-774.38C60.95,-794.03 87.81,-836.7 122.5,-859 124.77,-860.46 127.14,-861.8 129.6,-863.05"/>
<polygon fill="#63b8ff" stroke="#63b8ff" points="128.07,-866.2 138.63,-867 130.87,-859.79 128.07,-866.2"/>
</a>
</g>
</g>
<!-- Node17 -->
<g id="Node000017" class="node">
<title>Node17</title>
<g id="a_Node000017"><a xlink:href="group__adxl362__basic__driver.html#ga5251ad6b57744dd2e929d87c9d8f29b1" target="_top" xlink:title="set the detect mode">
<polygon fill="white" stroke="#666666" points="259.62,-850 129.62,-850 129.62,-830 259.62,-830 259.62,-850"/>
<text xml:space="preserve" text-anchor="middle" x="194.62" y="-836.5" font-family="Helvetica,sans-Serif" font-size="10.00">adxl362_set_detect_mode</text>
</a>
</g>
</g>
<!-- Node1&#45;&gt;Node17 -->
<g id="edge16_Node000001_Node000017" class="edge">
<title>Node1&#45;&gt;Node17</title>
<g id="a_edge16_Node000001_Node000017"><a xlink:title=" ">
<path fill="none" stroke="#63b8ff" d="M55.57,-774.36C70.06,-787.1 96.41,-808.55 122.5,-821 126.24,-822.78 130.17,-824.42 134.19,-825.92"/>
<polygon fill="#63b8ff" stroke="#63b8ff" points="132.91,-829.18 143.5,-829.08 135.16,-822.55 132.91,-829.18"/>
</a>
</g>
</g>
<!-- Node18 -->
<g id="Node000018" class="node">
<title>Node18</title>
<g id="a_Node000018"><a xlink:href="group__adxl362__basic__driver.html#ga372b66994085d01dcaadefb92862d85f" target="_top" xlink:title="set the fifo mode">
<polygon fill="white" stroke="#666666" points="252.88,-812 136.38,-812 136.38,-792 252.88,-792 252.88,-812"/>
<text xml:space="preserve" text-anchor="middle" x="194.62" y="-798.5" font-family="Helvetica,sans-Serif" font-size="10.00">adxl362_set_fifo_mode</text>
</a>
</g>
</g>
<!-- Node1&#45;&gt;Node18 -->
<g id="edge17_Node000001_Node000018" class="edge">
<title>Node1&#45;&gt;Node18</title>
<g id="a_edge17_Node000001_Node000018"><a xlink:title=" ">
<path fill="none" stroke="#63b8ff" d="M85.46,-774.48C102.77,-778.89 123.1,-784.06 141.43,-788.72"/>
<polygon fill="#63b8ff" stroke="#63b8ff" points="140.53,-792.1 151.08,-791.18 142.25,-785.32 140.53,-792.1"/>
</a>
</g>
</g>
<!-- Node19 -->
<g id="Node000019" class="node">
<title>Node19</title>
<g id="a_Node000019"><a xlink:href="group__adxl362__basic__driver.html#ga304ef8a498d3ff0f0988bcfa8fb03258" target="_top" xlink:title="set the fifo sample">
<polygon fill="white" stroke="#666666" points="256.62,-774 132.62,-774 132.62,-754 256.62,-754 256.62,-774"/>
<text xml:space="preserve" text-anchor="middle" x="194.62" y="-760.5" font-family="Helvetica,sans-Serif" font-size="10.00">adxl362_set_fifo_sample</text>
</a>
</g>
</g>
<!-- Node1&#45;&gt;Node19 -->
<g id="edge18_Node000001_Node000019" class="edge">
<title>Node1&#45;&gt;Node19</title>
<g id="a_edge18_Node000001_Node000019"><a xlink:title=" ">
<path fill="none" stroke="#63b8ff" d="M86.66,-764C97.38,-764 109.19,-764 120.95,-764"/>
<polygon fill="#63b8ff" stroke="#63b8ff" points="120.64,-767.5 130.64,-764 120.64,-760.5 120.64,-767.5"/>
</a>
</g>
</g>
<!-- Node20 -->
<g id="Node000020" class="node">
<title>Node20</title>
<g id="a_Node000020"><a xlink:href="group__adxl362__basic__driver.html#gab24ca1a07ed33d83395e6a8a3719fad1" target="_top" xlink:title="enable or disable saving temperature data to fifo">
<polygon fill="white" stroke="#666666" points="266.75,-736 122.5,-736 122.5,-716 266.75,-716 266.75,-736"/>
<text xml:space="preserve" text-anchor="middle" x="194.62" y="-722.5" font-family="Helvetica,sans-Serif" font-size="10.00">adxl362_set_fifo_temperature</text>
</a>
</g>
</g>
<!-- Node1&#45;&gt;Node20 -->
<g id="edge19_Node000001_Node000020" class="edge">
<title>Node1&#45;&gt;Node20</title>
<g id="a_edge19_Node000001_Node000020"><a xlink:title=" ">
<path fill="none" stroke="#63b8ff" d="M85.46,-753.52C102.77,-749.11 123.1,-743.94 141.43,-739.28"/>
<polygon fill="#63b8ff" stroke="#63b8ff" points="142.25,-742.68 151.08,-736.82 140.53,-735.9 142.25,-742.68"/>
</a>
</g>
</g>
<!-- Node21 -->
<g id="Node000021" class="node">
<title>Node21</title>
<g id="a_Node000021"><a xlink:href="group__adxl362__basic__driver.html#gacee9c11cbd97c0acf357d1c62d52214b" target="_top" xlink:title="enable or disable inactivity">
<polygon fill="white" stroke="#666666" points="251,-698 138.25,-698 138.25,-678 251,-678 251,-698"/>
<text xml:space="preserve" text-anchor="middle" x="194.62" y="-684.5" font-family="Helvetica,sans-Serif" font-size="10.00">adxl362_set_inactivity</text>
</a>
</g>
</g>
<!-- Node1&#45;&gt;Node21 -->
<g id="edge20_Node000001_Node000021" class="edge">
<title>Node1&#45;&gt;Node21</title>
<g id="a_edge20_Node000001_Node000021"><a xlink:title=" ">
<path fill="none" stroke="#63b8ff" d="M55.57,-753.64C70.06,-740.9 96.41,-719.45 122.5,-707 126.24,-705.22 130.17,-703.58 134.19,-702.08"/>
<polygon fill="#63b8ff" stroke="#63b8ff" points="135.16,-705.45 143.5,-698.92 132.91,-698.82 135.16,-705.45"/>
</a>
</g>
</g>
<!-- Node22 -->
<g id="Node000022" class="node">
<title>Node22</title>
<g id="a_Node000022"><a xlink:href="group__adxl362__basic__driver.html#ga2c9c4376ec84b9c63602c3b890efc48e" target="_top" xlink:title="set the inactivity detect trigger mode">
<polygon fill="white" stroke="#666666" points="251,-660 138.25,-660 138.25,-628 251,-628 251,-660"/>
<text xml:space="preserve" text-anchor="start" x="146.25" y="-646.5" font-family="Helvetica,sans-Serif" font-size="10.00">adxl362_set_inactivity</text>
<text xml:space="preserve" text-anchor="middle" x="194.62" y="-634.5" font-family="Helvetica,sans-Serif" font-size="10.00">_detect_trigger</text>
</a>
</g>
</g>
<!-- Node1&#45;&gt;Node22 -->
<g id="edge21_Node000001_Node000022" class="edge">
<title>Node1&#45;&gt;Node22</title>
<g id="a_edge21_Node000001_Node000022"><a xlink:title=" ">
<path fill="none" stroke="#63b8ff" d="M50.17,-753.56C61.67,-734.19 88.87,-692.5 122.5,-669 124.27,-667.76 126.11,-666.58 128,-665.45"/>
<polygon fill="#63b8ff" stroke="#63b8ff" points="129.27,-668.74 136.46,-660.96 125.98,-662.56 129.27,-668.74"/>
</a>
</g>
</g>
<!-- Node23 -->
<g id="Node000023" class="node">
<title>Node23</title>
<g id="a_Node000023"><a xlink:href="group__adxl362__basic__driver.html#ga6196c81ae16b9827171aac19c7283cde" target="_top" xlink:title="set the inactivity threshold">
<polygon fill="white" stroke="#666666" points="251,-610 138.25,-610 138.25,-578 251,-578 251,-610"/>
<text xml:space="preserve" text-anchor="start" x="146.25" y="-596.5" font-family="Helvetica,sans-Serif" font-size="10.00">adxl362_set_inactivity</text>
<text xml:space="preserve" text-anchor="middle" x="194.62" y="-584.5" font-family="Helvetica,sans-Serif" font-size="10.00">_threshold</text>
</a>
</g>
</g>
<!-- Node1&#45;&gt;Node23 -->
<g id="edge22_Node000001_Node000023" class="edge">
<title>Node1&#45;&gt;Node23</title>
<g id="a_edge22_Node000001_Node000023"><a xlink:title=" ">
<path fill="none" stroke="#63b8ff" d="M47.02,-753.56C54.56,-727.16 77.91,-657.09 122.5,-619 124.22,-617.53 126.02,-616.15 127.9,-614.85"/>
<polygon fill="#63b8ff" stroke="#63b8ff" points="129.69,-617.86 136.5,-609.75 126.12,-611.84 129.69,-617.86"/>
</a>
</g>
</g>
<!-- Node24 -->
<g id="Node000024" class="node">
<title>Node24</title>
<g id="a_Node000024"><a xlink:href="group__adxl362__basic__driver.html#ga348040ea4c27ce5192a9cd148e3194b5" target="_top" xlink:title="set the inactivity time">
<polygon fill="white" stroke="#666666" points="263,-560 126.25,-560 126.25,-540 263,-540 263,-560"/>
<text xml:space="preserve" text-anchor="middle" x="194.62" y="-546.5" font-family="Helvetica,sans-Serif" font-size="10.00">adxl362_set_inactivity_time</text>
</a>
</g>
</g>
<!-- Node1&#45;&gt;Node24 -->
<g id="edge23_Node000001_Node000024" class="edge">
<title>Node1&#45;&gt;Node24</title>
<g id="a_edge23_Node000001_Node000024"><a xlink:title=" ">
<path fill="none" stroke="#63b8ff" d="M45.21,-753.7C48.79,-721.31 64.35,-620.53 122.5,-569 123.6,-568.02 124.75,-567.09 125.94,-566.21"/>
<polygon fill="#63b8ff" stroke="#63b8ff" points="127.63,-569.28 134.39,-561.12 124.02,-563.28 127.63,-569.28"/>
</a>
</g>
</g>
<!-- Node25 -->
<g id="Node000025" class="node">
<title>Node25</title>
<g id="a_Node000025"><a xlink:href="group__adxl362__basic__driver.html#gaa4565963e38c62604c352385a81cbe04" target="_top" xlink:title="set the interrupt pin1 active level">
<polygon fill="white" stroke="#666666" points="249.12,-522 140.12,-522 140.12,-490 249.12,-490 249.12,-522"/>
<text xml:space="preserve" text-anchor="start" x="148.12" y="-508.5" font-family="Helvetica,sans-Serif" font-size="10.00">adxl362_set_interrupt</text>
<text xml:space="preserve" text-anchor="middle" x="194.62" y="-496.5" font-family="Helvetica,sans-Serif" font-size="10.00">_pin1_active_level</text>
</a>
</g>
</g>
<!-- Node1&#45;&gt;Node25 -->
<g id="edge24_Node000001_Node000025" class="edge">
<title>Node1&#45;&gt;Node25</title>
<g id="a_edge24_Node000001_Node000025"><a xlink:title=" ">
<path fill="none" stroke="#63b8ff" d="M44.64,-753.52C46.57,-717.39 57.78,-596.63 122.5,-531 124.83,-528.64 127.39,-526.5 130.12,-524.57"/>
<polygon fill="#63b8ff" stroke="#63b8ff" points="131.82,-527.63 138.63,-519.51 128.24,-521.61 131.82,-527.63"/>
</a>
</g>
</g>
<!-- Node26 -->
<g id="Node000026" class="node">
<title>Node26</title>
<g id="a_Node000026"><a xlink:href="group__adxl362__basic__driver.html#gabc6e549ad5cbd79edd0747b716c3a042" target="_top" xlink:title="enable or disable interrupt pin1 as the external clock">
<polygon fill="white" stroke="#666666" points="256.25,-472 133,-472 133,-440 256.25,-440 256.25,-472"/>
<text xml:space="preserve" text-anchor="start" x="141" y="-458.5" font-family="Helvetica,sans-Serif" font-size="10.00">adxl362_set_interrupt</text>
<text xml:space="preserve" text-anchor="middle" x="194.62" y="-446.5" font-family="Helvetica,sans-Serif" font-size="10.00">_pin1_as_external_clock</text>
</a>
</g>
</g>
<!-- Node1&#45;&gt;Node26 -->
<g id="edge25_Node000001_Node000026" class="edge">
<title>Node1&#45;&gt;Node26</title>
<g id="a_edge25_Node000001_Node000026"><a xlink:title=" ">
<path fill="none" stroke="#63b8ff" d="M43.92,-753.65C43.18,-713.05 45.95,-562.96 122.5,-481 122.97,-480.49 123.46,-479.99 123.96,-479.51"/>
<polygon fill="#63b8ff" stroke="#63b8ff" points="125.97,-482.38 131.6,-473.4 121.6,-476.91 125.97,-482.38"/>
</a>
</g>
</g>
<!-- Node27 -->
<g id="Node000027" class="node">
<title>Node27</title>
<g id="a_Node000027"><a xlink:href="group__adxl362__basic__driver.html#ga722d68700b98fe4ab35903258ec9052b" target="_top" xlink:title="set the interrupt pin1 map">
<polygon fill="white" stroke="#666666" points="249.12,-422 140.12,-422 140.12,-390 249.12,-390 249.12,-422"/>
<text xml:space="preserve" text-anchor="start" x="148.12" y="-408.5" font-family="Helvetica,sans-Serif" font-size="10.00">adxl362_set_interrupt</text>
<text xml:space="preserve" text-anchor="middle" x="194.62" y="-396.5" font-family="Helvetica,sans-Serif" font-size="10.00">_pin1_map</text>
</a>
</g>
</g>
<!-- Node1&#45;&gt;Node27 -->
<g id="edge26_Node000001_Node000027" class="edge">
<title>Node1&#45;&gt;Node27</title>
<g id="a_edge26_Node000001_Node000027"><a xlink:title=" ">
<path fill="none" stroke="#63b8ff" d="M45.34,-753.75C50.89,-703.21 77.56,-481.04 122.5,-431 124.83,-428.41 127.45,-426.08 130.26,-424"/>
<polygon fill="#63b8ff" stroke="#63b8ff" points="131.85,-427.13 138.54,-418.92 128.19,-421.16 131.85,-427.13"/>
</a>
</g>
</g>
<!-- Node28 -->
<g id="Node000028" class="node">
<title>Node28</title>
<g id="a_Node000028"><a xlink:href="group__adxl362__basic__driver.html#ga53d0c394247a9337e14db6b02f101ae8" target="_top" xlink:title="set the interrupt pin2 active level">
<polygon fill="white" stroke="#666666" points="249.12,-372 140.12,-372 140.12,-340 249.12,-340 249.12,-372"/>
<text xml:space="preserve" text-anchor="start" x="148.12" y="-358.5" font-family="Helvetica,sans-Serif" font-size="10.00">adxl362_set_interrupt</text>
<text xml:space="preserve" text-anchor="middle" x="194.62" y="-346.5" font-family="Helvetica,sans-Serif" font-size="10.00">_pin2_active_level</text>
</a>
</g>
</g>
<!-- Node1&#45;&gt;Node28 -->
<g id="edge27_Node000001_Node000028" class="edge">
<title>Node1&#45;&gt;Node28</title>
<g id="a_edge27_Node000001_Node000028"><a xlink:title=" ">
<path fill="none" stroke="#63b8ff" d="M45,-753.71C49.21,-698.69 71.54,-439.44 122.5,-381 124.79,-378.37 127.38,-376.02 130.17,-373.92"/>
<polygon fill="#63b8ff" stroke="#63b8ff" points="131.76,-377.05 138.4,-368.8 128.06,-371.1 131.76,-377.05"/>
</a>
</g>
</g>
<!-- Node29 -->
<g id="Node000029" class="node">
<title>Node29</title>
<g id="a_Node000029"><a xlink:href="group__adxl362__basic__driver.html#gad9c158c9d5b43f44ba1ca1121af00f7e" target="_top" xlink:title="enable or disable interrupt pin2 as the external sampling trigger">
<polygon fill="white" stroke="#666666" points="264.12,-322 125.12,-322 125.12,-278 264.12,-278 264.12,-322"/>
<text xml:space="preserve" text-anchor="start" x="133.12" y="-308.5" font-family="Helvetica,sans-Serif" font-size="10.00">adxl362_set_interrupt</text>
<text xml:space="preserve" text-anchor="start" x="133.12" y="-296.5" font-family="Helvetica,sans-Serif" font-size="10.00">_pin2_as_external_sampling</text>
<text xml:space="preserve" text-anchor="middle" x="194.62" y="-284.5" font-family="Helvetica,sans-Serif" font-size="10.00">_trigger</text>
</a>
</g>
</g>
<!-- Node1&#45;&gt;Node29 -->
<g id="edge28_Node000001_Node000029" class="edge">
<title>Node1&#45;&gt;Node29</title>
<g id="a_edge28_Node000001_Node000029"><a xlink:title=" ">
<path fill="none" stroke="#63b8ff" d="M44.82,-753.64C48.27,-694.51 68,-399.9 122.5,-331 122.66,-330.8 122.81,-330.61 122.97,-330.41"/>
<polygon fill="#63b8ff" stroke="#63b8ff" points="125.34,-333 129.99,-323.48 120.41,-328.02 125.34,-333"/>
</a>
</g>
</g>
<!-- Node30 -->
<g id="Node000030" class="node">
<title>Node30</title>
<g id="a_Node000030"><a xlink:href="group__adxl362__basic__driver.html#ga1b6cd0575d24e065a27408d7e3a9934a" target="_top" xlink:title="set the interrupt pin2 map">
<polygon fill="white" stroke="#666666" points="249.12,-260 140.12,-260 140.12,-228 249.12,-228 249.12,-260"/>
<text xml:space="preserve" text-anchor="start" x="148.12" y="-246.5" font-family="Helvetica,sans-Serif" font-size="10.00">adxl362_set_interrupt</text>
<text xml:space="preserve" text-anchor="middle" x="194.62" y="-234.5" font-family="Helvetica,sans-Serif" font-size="10.00">_pin2_map</text>
</a>
</g>
</g>
<!-- Node1&#45;&gt;Node30 -->
<g id="edge29_Node000001_Node000030" class="edge">
<title>Node1&#45;&gt;Node30</title>
<g id="a_edge29_Node000001_Node000030"><a xlink:title=" ">
<path fill="none" stroke="#63b8ff" d="M44.48,-753.81C46.12,-690.07 57.89,-346.53 122.5,-269 124.77,-266.27 127.36,-263.84 130.18,-261.68"/>
<polygon fill="#63b8ff" stroke="#63b8ff" points="131.93,-264.71 138.53,-256.43 128.2,-258.78 131.93,-264.71"/>
</a>
</g>
</g>
<!-- Node31 -->
<g id="Node000031" class="node">
<title>Node31</title>
<g id="a_Node000031"><a xlink:href="group__adxl362__basic__driver.html#gac63915e71f46c7d59a2a340e81e7fc47" target="_top" xlink:title="set the chip mode">
<polygon fill="white" stroke="#666666" points="243.5,-210 145.75,-210 145.75,-190 243.5,-190 243.5,-210"/>
<text xml:space="preserve" text-anchor="middle" x="194.62" y="-196.5" font-family="Helvetica,sans-Serif" font-size="10.00">adxl362_set_mode</text>
</a>
</g>
</g>
<!-- Node1&#45;&gt;Node31 -->
<g id="edge30_Node000001_Node000031" class="edge">
<title>Node1&#45;&gt;Node31</title>
<g id="a_edge30_Node000001_Node000031"><a xlink:title=" ">
<path fill="none" stroke="#63b8ff" d="M44.24,-753.61C44.39,-685.43 48.55,-302.27 122.5,-219 125.98,-215.08 130.18,-211.92 134.77,-209.39"/>
<polygon fill="#63b8ff" stroke="#63b8ff" points="136.16,-212.6 143.93,-205.4 133.37,-206.19 136.16,-212.6"/>
</a>
</g>
</g>
<!-- Node32 -->
<g id="Node000032" class="node">
<title>Node32</title>
<g id="a_Node000032"><a xlink:href="group__adxl362__basic__driver.html#ga7b2d5db002dd4b992b1716b1de25b182" target="_top" xlink:title="set the noise mode">
<polygon fill="white" stroke="#666666" points="257.75,-172 131.5,-172 131.5,-152 257.75,-152 257.75,-172"/>
<text xml:space="preserve" text-anchor="middle" x="194.62" y="-158.5" font-family="Helvetica,sans-Serif" font-size="10.00">adxl362_set_noise_mode</text>
</a>
</g>
</g>
<!-- Node1&#45;&gt;Node32 -->
<g id="edge31_Node000001_Node000032" class="edge">
<title>Node1&#45;&gt;Node32</title>
<g id="a_edge31_Node000001_Node000032"><a xlink:title=" ">
<path fill="none" stroke="#63b8ff" d="M44.14,-753.81C43.56,-683.52 43.57,-270.7 122.5,-181 123.07,-180.35 123.66,-179.73 124.27,-179.12"/>
<polygon fill="#63b8ff" stroke="#63b8ff" points="126.09,-182.13 131.86,-173.25 121.81,-176.6 126.09,-182.13"/>
</a>
</g>
</g>
<!-- Node33 -->
<g id="Node000033" class="node">
<title>Node33</title>
<g id="a_Node000033"><a xlink:href="group__adxl362__basic__driver.html#gaff431474d1e12d2f38a92cba97af5745" target="_top" xlink:title="set the output data rate">
<polygon fill="white" stroke="#666666" points="238.25,-134 151,-134 151,-114 238.25,-114 238.25,-134"/>
<text xml:space="preserve" text-anchor="middle" x="194.62" y="-120.5" font-family="Helvetica,sans-Serif" font-size="10.00">adxl362_set_odr</text>
</a>
</g>
</g>
<!-- Node1&#45;&gt;Node33 -->
<g id="edge32_Node000001_Node000033" class="edge">
<title>Node1&#45;&gt;Node33</title>
<g id="a_edge32_Node000001_Node000033"><a xlink:title=" ">
<path fill="none" stroke="#63b8ff" d="M44.04,-753.63C42.77,-680.2 38.72,-238.99 122.5,-143 127.24,-137.57 133.35,-133.6 139.99,-130.73"/>
<polygon fill="#63b8ff" stroke="#63b8ff" points="140.99,-134.09 149.32,-127.54 138.72,-127.46 140.99,-134.09"/>
</a>
</g>
</g>
<!-- Node34 -->
<g id="Node000034" class="node">
<title>Node34</title>
<g id="a_Node000034"><a xlink:href="group__adxl362__basic__driver.html#ga17145b1a5c9e0254bb22ab35419cd554" target="_top" xlink:title="set the measurement range">
<polygon fill="white" stroke="#666666" points="243.5,-96 145.75,-96 145.75,-76 243.5,-76 243.5,-96"/>
<text xml:space="preserve" text-anchor="middle" x="194.62" y="-82.5" font-family="Helvetica,sans-Serif" font-size="10.00">adxl362_set_range</text>
</a>
</g>
</g>
<!-- Node1&#45;&gt;Node34 -->
<g id="edge33_Node000001_Node000034" class="edge">
<title>Node1&#45;&gt;Node34</title>
<g id="a_edge33_Node000001_Node000034"><a xlink:title=" ">
<path fill="none" stroke="#63b8ff" d="M44.79,-753.5C49.04,-673.08 77.99,-156.37 122.5,-105 126.08,-100.87 130.44,-97.59 135.24,-94.99"/>
<polygon fill="#63b8ff" stroke="#63b8ff" points="136.36,-98.32 144.16,-91.16 133.59,-91.89 136.36,-98.32"/>
</a>
</g>
</g>
<!-- Node35 -->
<g id="Node000035" class="node">
<title>Node35</title>
<g id="a_Node000035"><a xlink:href="group__adxl362__basic__driver.html#ga4e57ac3652bda25bc67c9350da542558" target="_top" xlink:title="enable or disable the self test">
<polygon fill="white" stroke="#666666" points="250.25,-58 139,-58 139,-38 250.25,-38 250.25,-58"/>
<text xml:space="preserve" text-anchor="middle" x="194.62" y="-44.5" font-family="Helvetica,sans-Serif" font-size="10.00">adxl362_set_self_test</text>
</a>
</g>
</g>
<!-- Node1&#45;&gt;Node35 -->
<g id="edge34_Node000001_Node000035" class="edge">
<title>Node1&#45;&gt;Node35</title>
<g id="a_edge34_Node000001_Node000035"><a xlink:title=" ">
<path fill="none" stroke="#63b8ff" d="M44.71,-753.7C48.5,-671.33 75.48,-121.62 122.5,-67 124.43,-64.75 126.6,-62.76 128.94,-60.99"/>
<polygon fill="#63b8ff" stroke="#63b8ff" points="130.59,-64.08 137.42,-55.98 127.03,-58.05 130.59,-64.08"/>
</a>
</g>
</g>
<!-- Node36 -->
<g id="Node000036" class="node">
<title>Node36</title>
<g id="a_Node000036"><a xlink:href="group__adxl362__basic__driver.html#ga5f5f20b381d785a97bf8a6aa95a25896" target="_top" xlink:title="enable or disable chip wake up">
<polygon fill="white" stroke="#666666" points="251,-20 138.25,-20 138.25,0 251,0 251,-20"/>
<text xml:space="preserve" text-anchor="middle" x="194.62" y="-6.5" font-family="Helvetica,sans-Serif" font-size="10.00">adxl362_set_wake_up</text>
</a>
</g>
</g>
<!-- Node1&#45;&gt;Node36 -->
<g id="edge35_Node000001_Node000036" class="edge">
<title>Node1&#45;&gt;Node36</title>
<g id="a_edge35_Node000001_Node000036"><a xlink:title=" ">
<path fill="none" stroke="#63b8ff" d="M44.65,-753.68C48.04,-668.75 73.01,-86.82 122.5,-29 124.35,-26.83 126.43,-24.9 128.66,-23.18"/>
<polygon fill="#63b8ff" stroke="#63b8ff" points="129.97,-26.48 136.7,-18.3 126.34,-20.49 129.97,-26.48"/>
</a>
</g>
</g>
</g>
</svg>
