<?xml version="1.0" encoding="UTF-8" standalone="no"?>
<!DOCTYPE svg PUBLIC "-//W3C//DTD SVG 1.1//EN"
 "http://www.w3.org/Graphics/SVG/1.1/DTD/svg11.dtd">
<!-- Generated by graphviz version 13.1.0 (20250701.0955)
 -->
<!-- Title: adxl362 driver function Pages: 1 -->
<svg width="276pt" height="290pt"
 viewBox="0.00 0.00 276.00 290.00" xmlns="http://www.w3.org/2000/svg" xmlns:xlink="http://www.w3.org/1999/xlink">
<g id="graph0" class="graph" transform="scale(1 1) rotate(0) translate(4 286)">
<title>adxl362 driver function</title>
<!-- Node3 -->
<g id="Node000003" class="node">
<title>Node3</title>
<g id="a_Node000003"><a xlink:href="group__adxl362__basic__driver.html" target="_top" xlink:title="adxl362 basic driver modules">
<polygon fill="white" stroke="#666666" points="260.38,-282 157.38,-282 157.38,-250 260.38,-250 260.38,-282"/>
<text xml:space="preserve" text-anchor="start" x="165.38" y="-268.5" font-family="Helvetica,sans-Serif" font-size="10.00">adxl362 basic driver</text>
<text xml:space="preserve" text-anchor="middle" x="208.88" y="-256.5" font-family="Helvetica,sans-Serif" font-size="10.00"> function</text>
</a>
</g>
</g>
<!-- Node1 -->
<g id="Node000001" class="node">
<title>Node1</title>
<g id="a_Node000001"><a xlink:title="adxl362 driver modules">
<polygon fill="#999999" stroke="#666666" points="114.25,-151 0,-151 0,-131 114.25,-131 114.25,-151"/>
<text xml:space="preserve" text-anchor="middle" x="57.12" y="-137.5" font-family="Helvetica,sans-Serif" font-size="10.00">adxl362 driver function</text>
</a>
</g>
</g>
<!-- Node1&#45;&gt;Node3 -->
<g id="edge2" class="edge">
<title>Node1&#45;&gt;Node3</title>
<path fill="none" stroke="black" d="M72.03,-160.43C88.57,-182.41 118.05,-218.11 150.25,-241 154.69,-244.16 159.6,-247.04 164.62,-249.62"/>
<polygon fill="black" stroke="black" points="75.02,-158.59 66.27,-152.61 69.38,-162.74 75.02,-158.59"/>
</g>
<!-- Node6 -->
<g id="Node000006" class="node">
<title>Node6</title>
<g id="a_Node000006"><a xlink:href="group__adxl362__example__driver.html" target="_top" xlink:title="adxl362 example driver modules">
<polygon fill="white" stroke="#666666" points="267.12,-232 150.62,-232 150.62,-200 267.12,-200 267.12,-232"/>
<text xml:space="preserve" text-anchor="start" x="158.62" y="-218.5" font-family="Helvetica,sans-Serif" font-size="10.00">adxl362 example driver</text>
<text xml:space="preserve" text-anchor="middle" x="208.88" y="-206.5" font-family="Helvetica,sans-Serif" font-size="10.00"> function</text>
</a>
</g>
</g>
<!-- Node1&#45;&gt;Node6 -->
<g id="edge5" class="edge">
<title>Node1&#45;&gt;Node6</title>
<path fill="none" stroke="black" d="M86.12,-157.02C104.2,-167.17 128.37,-180.34 150.25,-191 156.13,-193.87 162.42,-196.76 168.61,-199.52"/>
<polygon fill="black" stroke="black" points="87.98,-154.06 77.55,-152.19 84.53,-160.15 87.98,-154.06"/>
</g>
<!-- Node4 -->
<g id="Node000004" class="node">
<title>Node4</title>
<g id="a_Node000004"><a xlink:href="group__adxl362__extern__driver.html" target="_top" xlink:title="adxl362 extern driver modules">
<polygon fill="white" stroke="#666666" points="262.25,-182 155.5,-182 155.5,-150 262.25,-150 262.25,-182"/>
<text xml:space="preserve" text-anchor="start" x="163.5" y="-168.5" font-family="Helvetica,sans-Serif" font-size="10.00">adxl362 extern driver</text>
<text xml:space="preserve" text-anchor="middle" x="208.88" y="-156.5" font-family="Helvetica,sans-Serif" font-size="10.00"> function</text>
</a>
</g>
</g>
<!-- Node1&#45;&gt;Node4 -->
<g id="edge3" class="edge">
<title>Node1&#45;&gt;Node4</title>
<path fill="none" stroke="black" d="M126.07,-152.34C135.82,-153.97 145.73,-155.63 155.13,-157.19"/>
<polygon fill="black" stroke="black" points="126.67,-148.9 116.23,-150.7 125.52,-155.8 126.67,-148.9"/>
</g>
<!-- Node5 -->
<g id="Node000005" class="node">
<title>Node5</title>
<g id="a_Node000005"><a xlink:href="group__adxl362__interface__driver.html" target="_top" xlink:title="adxl362 interface driver modules">
<polygon fill="white" stroke="#666666" points="267.5,-132 150.25,-132 150.25,-100 267.5,-100 267.5,-132"/>
<text xml:space="preserve" text-anchor="start" x="158.25" y="-118.5" font-family="Helvetica,sans-Serif" font-size="10.00">adxl362 interface driver</text>
<text xml:space="preserve" text-anchor="middle" x="208.88" y="-106.5" font-family="Helvetica,sans-Serif" font-size="10.00"> function</text>
</a>
</g>
</g>
<!-- Node1&#45;&gt;Node5 -->
<g id="edge4" class="edge">
<title>Node1&#45;&gt;Node5</title>
<path fill="none" stroke="black" d="M126.03,-129.66C134.1,-128.32 142.28,-126.95 150.19,-125.63"/>
<polygon fill="black" stroke="black" points="125.52,-126.2 116.23,-131.3 126.67,-133.1 125.52,-126.2"/>
</g>
<!-- Node2 -->
<g id="Node000002" class="node">
<title>Node2</title>
<g id="a_Node000002"><a xlink:href="group__adxl362__link__driver.html" target="_top" xlink:title="adxl362 link driver modules">
<polygon fill="white" stroke="#666666" points="256.25,-82 161.5,-82 161.5,-50 256.25,-50 256.25,-82"/>
<text xml:space="preserve" text-anchor="start" x="169.5" y="-68.5" font-family="Helvetica,sans-Serif" font-size="10.00">adxl362 link driver</text>
<text xml:space="preserve" text-anchor="middle" x="208.88" y="-56.5" font-family="Helvetica,sans-Serif" font-size="10.00"> function</text>
</a>
</g>
</g>
<!-- Node1&#45;&gt;Node2 -->
<g id="edge1" class="edge">
<title>Node1&#45;&gt;Node2</title>
<path fill="none" stroke="black" d="M86.12,-124.98C104.2,-114.83 128.37,-101.66 150.25,-91 156.13,-88.13 162.42,-85.24 168.61,-82.48"/>
<polygon fill="black" stroke="black" points="84.53,-121.85 77.55,-129.81 87.98,-127.94 84.53,-121.85"/>
</g>
<!-- Node7 -->
<g id="Node000007" class="node">
<title>Node7</title>
<g id="a_Node000007"><a xlink:href="group__adxl362__test__driver.html" target="_top" xlink:title="adxl362 test driver modules">
<polygon fill="white" stroke="#666666" points="257,-32 160.75,-32 160.75,0 257,0 257,-32"/>
<text xml:space="preserve" text-anchor="start" x="168.75" y="-18.5" font-family="Helvetica,sans-Serif" font-size="10.00">adxl362 test driver</text>
<text xml:space="preserve" text-anchor="middle" x="208.88" y="-6.5" font-family="Helvetica,sans-Serif" font-size="10.00"> function</text>
</a>
</g>
</g>
<!-- Node1&#45;&gt;Node7 -->
<g id="edge6" class="edge">
<title>Node1&#45;&gt;Node7</title>
<path fill="none" stroke="black" d="M72.03,-121.57C88.57,-99.59 118.05,-63.89 150.25,-41 154.69,-37.84 159.6,-34.96 164.62,-32.38"/>
<polygon fill="black" stroke="black" points="69.38,-119.26 66.27,-129.39 75.02,-123.41 69.38,-119.26"/>
</g>
</g>
</svg>
