<?xml version="1.0" encoding="UTF-8" standalone="no"?>
<!DOCTYPE svg PUBLIC "-//W3C//DTD SVG 1.1//EN"
 "http://www.w3.org/Graphics/SVG/1.1/DTD/svg11.dtd">
<!-- Generated by graphviz version 13.1.0 (20250701.0955)
 -->
<!-- Title: adxl362_basic_init Pages: 1 -->
<svg width="445pt" height="1538pt"
 viewBox="0.00 0.00 445.00 1538.00" xmlns="http://www.w3.org/2000/svg" xmlns:xlink="http://www.w3.org/1999/xlink">
<g id="graph0" class="graph" transform="scale(1 1) rotate(0) translate(4 1534)">
<title>adxl362_basic_init</title>
<!-- Node1 -->
<g id="Node000001" class="node">
<title>Node1</title>
<g id="a_Node000001"><a xlink:title="basic example init">
<polygon fill="#999999" stroke="#666666" points="96.25,-793 0,-793 0,-773 96.25,-773 96.25,-793"/>
<text xml:space="preserve" text-anchor="middle" x="48.12" y="-779.5" font-family="Helvetica,sans-Serif" font-size="10.00">adxl362_basic_init</text>
</a>
</g>
</g>
<!-- Node2 -->
<g id="Node000002" class="node">
<title>Node2</title>
<g id="a_Node000002"><a xlink:href="group__adxl362__basic__driver.html#gafb79238b7df22b689d36ba3dc2ed33ae" target="_top" xlink:title="close the chip">
<polygon fill="white" stroke="#666666" points="243.5,-1530 165.25,-1530 165.25,-1510 243.5,-1510 243.5,-1530"/>
<text xml:space="preserve" text-anchor="middle" x="204.38" y="-1516.5" font-family="Helvetica,sans-Serif" font-size="10.00">adxl362_deinit</text>
</a>
</g>
</g>
<!-- Node1&#45;&gt;Node2 -->
<g id="edge1_Node000001_Node000002" class="edge">
<title>Node1&#45;&gt;Node2</title>
<g id="a_edge1_Node000001_Node000002"><a xlink:title=" ">
<path fill="none" stroke="#63b8ff" d="M49.63,-793.35C53.79,-877.27 83.64,-1444.74 132.25,-1501 137.94,-1507.59 145.65,-1512.02 153.88,-1514.97"/>
<polygon fill="#63b8ff" stroke="#63b8ff" points="152.87,-1518.32 163.44,-1517.64 154.75,-1511.58 152.87,-1518.32"/>
</a>
</g>
</g>
<!-- Node3 -->
<g id="Node000003" class="node">
<title>Node3</title>
<g id="a_Node000003"><a xlink:href="group__adxl362__basic__driver.html#ga506084e26ed22be0b8b29a88dad1d726" target="_top" xlink:title="initialize the chip">
<polygon fill="white" stroke="#666666" points="238.25,-1492 170.5,-1492 170.5,-1472 238.25,-1472 238.25,-1492"/>
<text xml:space="preserve" text-anchor="middle" x="204.38" y="-1478.5" font-family="Helvetica,sans-Serif" font-size="10.00">adxl362_init</text>
</a>
</g>
</g>
<!-- Node1&#45;&gt;Node3 -->
<g id="edge2_Node000001_Node000003" class="edge">
<title>Node1&#45;&gt;Node3</title>
<g id="a_edge2_Node000001_Node000003"><a xlink:title=" ">
<path fill="none" stroke="#63b8ff" d="M48.95,-793.22C47.84,-869.52 44.4,-1350.24 132.25,-1458 139.16,-1466.47 149.17,-1471.97 159.52,-1475.53"/>
<polygon fill="#63b8ff" stroke="#63b8ff" points="158.27,-1478.81 168.84,-1478.17 160.18,-1472.08 158.27,-1478.81"/>
</a>
</g>
</g>
<!-- Node4 -->
<g id="Node000004" class="node">
<title>Node4</title>
<g id="a_Node000004"><a xlink:href="group__adxl362__interface__driver.html#ga5283f1a5c7e10c84d63f7dc39ae0638b" target="_top" xlink:title="interface print format data">
<polygon fill="white" stroke="#666666" points="436.5,-1419 312.5,-1419 312.5,-1387 436.5,-1387 436.5,-1419"/>
<text xml:space="preserve" text-anchor="start" x="320.5" y="-1405.5" font-family="Helvetica,sans-Serif" font-size="10.00">adxl362_interface_debug</text>
<text xml:space="preserve" text-anchor="middle" x="374.5" y="-1393.5" font-family="Helvetica,sans-Serif" font-size="10.00">_print</text>
</a>
</g>
</g>
<!-- Node1&#45;&gt;Node4 -->
<g id="edge3_Node000001_Node000004" class="edge">
<title>Node1&#45;&gt;Node4</title>
<g id="a_edge3_Node000001_Node000004"><a xlink:title=" ">
<path fill="none" stroke="#63b8ff" d="M49.66,-793.34C53.82,-872.55 82.44,-1381.23 132.25,-1425 186.63,-1472.79 276.96,-1446.36 330.3,-1423.92"/>
<polygon fill="#63b8ff" stroke="#63b8ff" points="331.62,-1427.17 339.39,-1419.97 328.82,-1420.75 331.62,-1427.17"/>
</a>
</g>
</g>
<!-- Node5 -->
<g id="Node000005" class="node">
<title>Node5</title>
<g id="a_Node000005"><a xlink:href="group__adxl362__interface__driver.html#ga29e7b7e01bd947f1b4ce978dde67abcf" target="_top" xlink:title="interface delay ms">
<polygon fill="white" stroke="#666666" points="274.25,-1416 134.5,-1416 134.5,-1396 274.25,-1396 274.25,-1416"/>
<text xml:space="preserve" text-anchor="middle" x="204.38" y="-1402.5" font-family="Helvetica,sans-Serif" font-size="10.00">adxl362_interface_delay_ms</text>
</a>
</g>
</g>
<!-- Node1&#45;&gt;Node5 -->
<g id="edge4_Node000001_Node000005" class="edge">
<title>Node1&#45;&gt;Node5</title>
<g id="a_edge4_Node000001_Node000005"><a xlink:title=" ">
<path fill="none" stroke="#63b8ff" d="M49.05,-793.1C48.7,-864.57 50.11,-1293.96 132.25,-1387 132.82,-1387.65 133.41,-1388.27 134.02,-1388.88"/>
<polygon fill="#63b8ff" stroke="#63b8ff" points="131.57,-1391.41 141.62,-1394.74 135.84,-1385.86 131.57,-1391.41"/>
</a>
</g>
</g>
<!-- Node6 -->
<g id="Node000006" class="node">
<title>Node6</title>
<g id="a_Node000006"><a xlink:href="group__adxl362__interface__driver.html#ga6b43b9bac0b18dccb0fd0e07c3df61e6" target="_top" xlink:title="interface receive callback">
<polygon fill="white" stroke="#666666" points="269,-1378 139.75,-1378 139.75,-1346 269,-1346 269,-1378"/>
<text xml:space="preserve" text-anchor="start" x="147.75" y="-1364.5" font-family="Helvetica,sans-Serif" font-size="10.00">adxl362_interface_receive</text>
<text xml:space="preserve" text-anchor="middle" x="204.38" y="-1352.5" font-family="Helvetica,sans-Serif" font-size="10.00">_callback</text>
</a>
</g>
</g>
<!-- Node1&#45;&gt;Node6 -->
<g id="edge5_Node000001_Node000006" class="edge">
<title>Node1&#45;&gt;Node6</title>
<g id="a_edge5_Node000001_Node000006"><a xlink:title=" ">
<path fill="none" stroke="#63b8ff" d="M49.27,-793.5C50.42,-862.38 60.05,-1249.68 132.25,-1337 132.59,-1337.42 132.95,-1337.83 133.3,-1338.23"/>
<polygon fill="#63b8ff" stroke="#63b8ff" points="130.82,-1340.7 140.62,-1344.71 135.46,-1335.46 130.82,-1340.7"/>
</a>
</g>
</g>
<!-- Node7 -->
<g id="Node000007" class="node">
<title>Node7</title>
<g id="a_Node000007"><a xlink:href="group__adxl362__interface__driver.html#ga262246f67f1493797eb53cce56bce778" target="_top" xlink:title="interface spi bus deinit">
<polygon fill="white" stroke="#666666" points="259.62,-1328 149.12,-1328 149.12,-1296 259.62,-1296 259.62,-1328"/>
<text xml:space="preserve" text-anchor="start" x="157.12" y="-1314.5" font-family="Helvetica,sans-Serif" font-size="10.00">adxl362_interface_spi</text>
<text xml:space="preserve" text-anchor="middle" x="204.38" y="-1302.5" font-family="Helvetica,sans-Serif" font-size="10.00">_deinit</text>
</a>
</g>
</g>
<!-- Node1&#45;&gt;Node7 -->
<g id="edge7_Node000001_Node000007" class="edge">
<title>Node1&#45;&gt;Node7</title>
<g id="a_edge7_Node000001_Node000007"><a xlink:title=" ">
<path fill="none" stroke="#63b8ff" d="M49.44,-793.38C51.58,-858.29 66.13,-1208.2 132.25,-1287 134.38,-1289.54 136.78,-1291.82 139.39,-1293.87"/>
<polygon fill="#63b8ff" stroke="#63b8ff" points="137.32,-1296.7 147.62,-1299.16 141.1,-1290.81 137.32,-1296.7"/>
</a>
</g>
</g>
<!-- Node8 -->
<g id="Node000008" class="node">
<title>Node8</title>
<g id="a_Node000008"><a xlink:href="group__adxl362__interface__driver.html#ga27d300b48903bd4c91c3ae687e7b2a8b" target="_top" xlink:title="interface spi bus init">
<polygon fill="white" stroke="#666666" points="268.62,-1278 140.12,-1278 140.12,-1258 268.62,-1258 268.62,-1278"/>
<text xml:space="preserve" text-anchor="middle" x="204.38" y="-1264.5" font-family="Helvetica,sans-Serif" font-size="10.00">adxl362_interface_spi_init</text>
</a>
</g>
</g>
<!-- Node1&#45;&gt;Node8 -->
<g id="edge8_Node000001_Node000008" class="edge">
<title>Node1&#45;&gt;Node8</title>
<g id="a_edge8_Node000001_Node000008"><a xlink:title=" ">
<path fill="none" stroke="#63b8ff" d="M49.51,-793.46C52.02,-855.92 68.03,-1179.11 132.25,-1249 132.83,-1249.64 133.44,-1250.25 134.06,-1250.85"/>
<polygon fill="#63b8ff" stroke="#63b8ff" points="131.66,-1253.42 141.76,-1256.62 135.86,-1247.82 131.66,-1253.42"/>
</a>
</g>
</g>
<!-- Node9 -->
<g id="Node000009" class="node">
<title>Node9</title>
<g id="a_Node000009"><a xlink:href="group__adxl362__interface__driver.html#ga20cdc94dfe4d6359a235d8b97b75509a" target="_top" xlink:title="interface spi bus read">
<polygon fill="white" stroke="#666666" points="271.62,-1240 137.12,-1240 137.12,-1220 271.62,-1220 271.62,-1240"/>
<text xml:space="preserve" text-anchor="middle" x="204.38" y="-1226.5" font-family="Helvetica,sans-Serif" font-size="10.00">adxl362_interface_spi_read</text>
</a>
</g>
</g>
<!-- Node1&#45;&gt;Node9 -->
<g id="edge9_Node000001_Node000009" class="edge">
<title>Node1&#45;&gt;Node9</title>
<g id="a_edge9_Node000001_Node000009"><a xlink:title=" ">
<path fill="none" stroke="#63b8ff" d="M49.69,-793.38C53.09,-852.59 72.86,-1147.35 132.25,-1211 132.85,-1211.65 133.48,-1212.28 134.12,-1212.88"/>
<polygon fill="#63b8ff" stroke="#63b8ff" points="132.01,-1215.67 142.14,-1218.77 136.15,-1210.03 132.01,-1215.67"/>
</a>
</g>
</g>
<!-- Node10 -->
<g id="Node000010" class="node">
<title>Node10</title>
<g id="a_Node000010"><a xlink:href="group__adxl362__interface__driver.html#gaa018ac4218e07d4561318215032cb3f1" target="_top" xlink:title="interface spi bus read">
<polygon fill="white" stroke="#666666" points="259.62,-1202 149.12,-1202 149.12,-1170 259.62,-1170 259.62,-1202"/>
<text xml:space="preserve" text-anchor="start" x="157.12" y="-1188.5" font-family="Helvetica,sans-Serif" font-size="10.00">adxl362_interface_spi</text>
<text xml:space="preserve" text-anchor="middle" x="204.38" y="-1176.5" font-family="Helvetica,sans-Serif" font-size="10.00">_read_address16</text>
</a>
</g>
</g>
<!-- Node1&#45;&gt;Node10 -->
<g id="edge10_Node000001_Node000010" class="edge">
<title>Node1&#45;&gt;Node10</title>
<g id="a_edge10_Node000001_Node000010"><a xlink:title=" ">
<path fill="none" stroke="#63b8ff" d="M50.03,-793.16C55.09,-847.5 81.36,-1103.52 132.25,-1161 134.33,-1163.35 136.65,-1165.49 139.14,-1167.42"/>
<polygon fill="#63b8ff" stroke="#63b8ff" points="137.22,-1170.34 147.53,-1172.76 140.97,-1164.43 137.22,-1170.34"/>
</a>
</g>
</g>
<!-- Node11 -->
<g id="Node000011" class="node">
<title>Node11</title>
<g id="a_Node000011"><a xlink:href="group__adxl362__interface__driver.html#ga2e1918bc77d354ac7c4606ef8490765c" target="_top" xlink:title="interface spi bus write">
<polygon fill="white" stroke="#666666" points="259.62,-1152 149.12,-1152 149.12,-1120 259.62,-1120 259.62,-1152"/>
<text xml:space="preserve" text-anchor="start" x="157.12" y="-1138.5" font-family="Helvetica,sans-Serif" font-size="10.00">adxl362_interface_spi</text>
<text xml:space="preserve" text-anchor="middle" x="204.38" y="-1126.5" font-family="Helvetica,sans-Serif" font-size="10.00">_write_address16</text>
</a>
</g>
</g>
<!-- Node1&#45;&gt;Node11 -->
<g id="edge11_Node000001_Node000011" class="edge">
<title>Node1&#45;&gt;Node11</title>
<g id="a_edge11_Node000001_Node000011"><a xlink:title=" ">
<path fill="none" stroke="#63b8ff" d="M50.44,-793.44C56.97,-843.89 87.47,-1062 132.25,-1111 134.37,-1113.32 136.72,-1115.43 139.23,-1117.33"/>
<polygon fill="#63b8ff" stroke="#63b8ff" points="137.35,-1120.28 147.68,-1122.63 141.06,-1114.35 137.35,-1120.28"/>
</a>
</g>
</g>
<!-- Node12 -->
<g id="Node000012" class="node">
<title>Node12</title>
<g id="a_Node000012"><a xlink:href="group__adxl362__basic__driver.html#gaddb0b038493d4e43ef3aa9ed1c09d2b6" target="_top" xlink:title="enable or disable activity">
<polygon fill="white" stroke="#666666" points="257,-1102 151.75,-1102 151.75,-1082 257,-1082 257,-1102"/>
<text xml:space="preserve" text-anchor="middle" x="204.38" y="-1088.5" font-family="Helvetica,sans-Serif" font-size="10.00">adxl362_set_activity</text>
</a>
</g>
</g>
<!-- Node1&#45;&gt;Node12 -->
<g id="edge12_Node000001_Node000012" class="edge">
<title>Node1&#45;&gt;Node12</title>
<g id="a_edge12_Node000001_Node000012"><a xlink:title=" ">
<path fill="none" stroke="#63b8ff" d="M48.73,-793.23C47.72,-834.7 49.67,-991.9 132.25,-1073 134.94,-1075.64 137.95,-1077.93 141.18,-1079.9"/>
<polygon fill="#63b8ff" stroke="#63b8ff" points="139.53,-1082.99 150.04,-1084.28 142.63,-1076.71 139.53,-1082.99"/>
</a>
</g>
</g>
<!-- Node13 -->
<g id="Node000013" class="node">
<title>Node13</title>
<g id="a_Node000013"><a xlink:href="group__adxl362__basic__driver.html#gab816ec16044e5007a7d6184446373bf0" target="_top" xlink:title="set the activity detect trigger mode">
<polygon fill="white" stroke="#666666" points="257,-1064 151.75,-1064 151.75,-1032 257,-1032 257,-1064"/>
<text xml:space="preserve" text-anchor="start" x="159.75" y="-1050.5" font-family="Helvetica,sans-Serif" font-size="10.00">adxl362_set_activity</text>
<text xml:space="preserve" text-anchor="middle" x="204.38" y="-1038.5" font-family="Helvetica,sans-Serif" font-size="10.00">_detect_trigger</text>
</a>
</g>
</g>
<!-- Node1&#45;&gt;Node13 -->
<g id="edge13_Node000001_Node000013" class="edge">
<title>Node1&#45;&gt;Node13</title>
<g id="a_edge13_Node000001_Node000013"><a xlink:title=" ">
<path fill="none" stroke="#63b8ff" d="M49.62,-793.29C51.95,-829.89 64.74,-955.18 132.25,-1023 135.06,-1025.82 138.21,-1028.33 141.57,-1030.55"/>
<polygon fill="#63b8ff" stroke="#63b8ff" points="139.76,-1033.55 150.2,-1035.36 143.17,-1027.43 139.76,-1033.55"/>
</a>
</g>
</g>
<!-- Node14 -->
<g id="Node000014" class="node">
<title>Node14</title>
<g id="a_Node000014"><a xlink:href="group__adxl362__basic__driver.html#ga7cb81a252dd49dc770ad8335acae9caf" target="_top" xlink:title="set the activity threshold">
<polygon fill="white" stroke="#666666" points="257,-1014 151.75,-1014 151.75,-982 257,-982 257,-1014"/>
<text xml:space="preserve" text-anchor="start" x="159.75" y="-1000.5" font-family="Helvetica,sans-Serif" font-size="10.00">adxl362_set_activity</text>
<text xml:space="preserve" text-anchor="middle" x="204.38" y="-988.5" font-family="Helvetica,sans-Serif" font-size="10.00">_threshold</text>
</a>
</g>
</g>
<!-- Node1&#45;&gt;Node14 -->
<g id="edge14_Node000001_Node000014" class="edge">
<title>Node1&#45;&gt;Node14</title>
<g id="a_edge14_Node000001_Node000014"><a xlink:title=" ">
<path fill="none" stroke="#63b8ff" d="M50.69,-793.31C56.01,-824.85 76.31,-921.07 132.25,-973 135.12,-975.66 138.29,-978.04 141.65,-980.18"/>
<polygon fill="#63b8ff" stroke="#63b8ff" points="139.74,-983.12 150.2,-984.82 143.08,-976.97 139.74,-983.12"/>
</a>
</g>
</g>
<!-- Node15 -->
<g id="Node000015" class="node">
<title>Node15</title>
<g id="a_Node000015"><a xlink:href="group__adxl362__basic__driver.html#ga8fe096454d1219f84b7e642ce0c1e4b1" target="_top" xlink:title="set the activity time">
<polygon fill="white" stroke="#666666" points="269,-964 139.75,-964 139.75,-944 269,-944 269,-964"/>
<text xml:space="preserve" text-anchor="middle" x="204.38" y="-950.5" font-family="Helvetica,sans-Serif" font-size="10.00">adxl362_set_activity_time</text>
</a>
</g>
</g>
<!-- Node1&#45;&gt;Node15 -->
<g id="edge15_Node000001_Node000015" class="edge">
<title>Node1&#45;&gt;Node15</title>
<g id="a_edge15_Node000001_Node000015"><a xlink:title=" ">
<path fill="none" stroke="#63b8ff" d="M51.71,-793.35C59.16,-820.9 83.28,-896.55 132.25,-935 133.77,-936.19 135.36,-937.31 137,-938.36"/>
<polygon fill="#63b8ff" stroke="#63b8ff" points="135.12,-941.33 145.59,-942.93 138.41,-935.14 135.12,-941.33"/>
</a>
</g>
</g>
<!-- Node16 -->
<g id="Node000016" class="node">
<title>Node16</title>
<g id="a_Node000016"><a xlink:href="group__adxl362__basic__driver.html#gae02655258f9e2e31bc71e1f7a2e637b9" target="_top" xlink:title="enable or disable auto sleep">
<polygon fill="white" stroke="#666666" points="264.88,-926 143.88,-926 143.88,-906 264.88,-906 264.88,-926"/>
<text xml:space="preserve" text-anchor="middle" x="204.38" y="-912.5" font-family="Helvetica,sans-Serif" font-size="10.00">adxl362_set_auto_sleep</text>
</a>
</g>
</g>
<!-- Node1&#45;&gt;Node16 -->
<g id="edge16_Node000001_Node000016" class="edge">
<title>Node1&#45;&gt;Node16</title>
<g id="a_edge16_Node000001_Node000016"><a xlink:title=" ">
<path fill="none" stroke="#63b8ff" d="M53.67,-793.34C64.12,-815.84 92.04,-869.44 132.25,-897 134.23,-898.35 136.3,-899.61 138.43,-900.78"/>
<polygon fill="#63b8ff" stroke="#63b8ff" points="136.92,-903.94 147.46,-904.98 139.87,-897.59 136.92,-903.94"/>
</a>
</g>
</g>
<!-- Node17 -->
<g id="Node000017" class="node">
<title>Node17</title>
<g id="a_Node000017"><a xlink:href="group__adxl362__basic__driver.html#gafafaaf950e977fd12f614577948f7744" target="_top" xlink:title="set the filter bandwidth">
<polygon fill="white" stroke="#666666" points="263.38,-888 145.38,-888 145.38,-868 263.38,-868 263.38,-888"/>
<text xml:space="preserve" text-anchor="middle" x="204.38" y="-874.5" font-family="Helvetica,sans-Serif" font-size="10.00">adxl362_set_bandwidth</text>
</a>
</g>
</g>
<!-- Node1&#45;&gt;Node17 -->
<g id="edge17_Node000001_Node000017" class="edge">
<title>Node1&#45;&gt;Node17</title>
<g id="a_edge17_Node000001_Node000017"><a xlink:title=" ">
<path fill="none" stroke="#63b8ff" d="M57.44,-793.29C71.24,-809.68 100.52,-841.63 132.25,-859 135.29,-860.66 138.49,-862.19 141.77,-863.59"/>
<polygon fill="#63b8ff" stroke="#63b8ff" points="140.46,-866.83 151.05,-867.09 142.93,-860.28 140.46,-866.83"/>
</a>
</g>
</g>
<!-- Node18 -->
<g id="Node000018" class="node">
<title>Node18</title>
<g id="a_Node000018"><a xlink:href="group__adxl362__basic__driver.html#ga5251ad6b57744dd2e929d87c9d8f29b1" target="_top" xlink:title="set the detect mode">
<polygon fill="white" stroke="#666666" points="269.38,-850 139.38,-850 139.38,-830 269.38,-830 269.38,-850"/>
<text xml:space="preserve" text-anchor="middle" x="204.38" y="-836.5" font-family="Helvetica,sans-Serif" font-size="10.00">adxl362_set_detect_mode</text>
</a>
</g>
</g>
<!-- Node1&#45;&gt;Node18 -->
<g id="edge18_Node000001_Node000018" class="edge">
<title>Node1&#45;&gt;Node18</title>
<g id="a_edge18_Node000001_Node000018"><a xlink:title=" ">
<path fill="none" stroke="#63b8ff" d="M69.22,-793.34C85.82,-801.6 110.15,-813.06 132.25,-821 137.6,-822.92 143.24,-824.75 148.9,-826.46"/>
<polygon fill="#63b8ff" stroke="#63b8ff" points="147.73,-829.76 158.31,-829.17 149.67,-823.04 147.73,-829.76"/>
</a>
</g>
</g>
<!-- Node19 -->
<g id="Node000019" class="node">
<title>Node19</title>
<g id="a_Node000019"><a xlink:href="group__adxl362__basic__driver.html#ga372b66994085d01dcaadefb92862d85f" target="_top" xlink:title="set the fifo mode">
<polygon fill="white" stroke="#666666" points="262.62,-812 146.12,-812 146.12,-792 262.62,-792 262.62,-812"/>
<text xml:space="preserve" text-anchor="middle" x="204.38" y="-798.5" font-family="Helvetica,sans-Serif" font-size="10.00">adxl362_set_fifo_mode</text>
</a>
</g>
</g>
<!-- Node1&#45;&gt;Node19 -->
<g id="edge19_Node000001_Node000019" class="edge">
<title>Node1&#45;&gt;Node19</title>
<g id="a_edge19_Node000001_Node000019"><a xlink:title=" ">
<path fill="none" stroke="#63b8ff" d="M96.66,-788.86C108.65,-790.33 121.75,-791.95 134.55,-793.52"/>
<polygon fill="#63b8ff" stroke="#63b8ff" points="133.82,-796.96 144.17,-794.71 134.68,-790.01 133.82,-796.96"/>
</a>
</g>
</g>
<!-- Node20 -->
<g id="Node000020" class="node">
<title>Node20</title>
<g id="a_Node000020"><a xlink:href="group__adxl362__basic__driver.html#ga304ef8a498d3ff0f0988bcfa8fb03258" target="_top" xlink:title="set the fifo sample">
<polygon fill="white" stroke="#666666" points="266.38,-774 142.38,-774 142.38,-754 266.38,-754 266.38,-774"/>
<text xml:space="preserve" text-anchor="middle" x="204.38" y="-760.5" font-family="Helvetica,sans-Serif" font-size="10.00">adxl362_set_fifo_sample</text>
</a>
</g>
</g>
<!-- Node1&#45;&gt;Node20 -->
<g id="edge20_Node000001_Node000020" class="edge">
<title>Node1&#45;&gt;Node20</title>
<g id="a_edge20_Node000001_Node000020"><a xlink:title=" ">
<path fill="none" stroke="#63b8ff" d="M96.66,-777.14C107.53,-775.81 119.32,-774.35 130.97,-772.92"/>
<polygon fill="#63b8ff" stroke="#63b8ff" points="131.06,-776.43 140.55,-771.74 130.2,-769.49 131.06,-776.43"/>
</a>
</g>
</g>
<!-- Node21 -->
<g id="Node000021" class="node">
<title>Node21</title>
<g id="a_Node000021"><a xlink:href="group__adxl362__basic__driver.html#gab24ca1a07ed33d83395e6a8a3719fad1" target="_top" xlink:title="enable or disable saving temperature data to fifo">
<polygon fill="white" stroke="#666666" points="276.5,-736 132.25,-736 132.25,-716 276.5,-716 276.5,-736"/>
<text xml:space="preserve" text-anchor="middle" x="204.38" y="-722.5" font-family="Helvetica,sans-Serif" font-size="10.00">adxl362_set_fifo_temperature</text>
</a>
</g>
</g>
<!-- Node1&#45;&gt;Node21 -->
<g id="edge21_Node000001_Node000021" class="edge">
<title>Node1&#45;&gt;Node21</title>
<g id="a_edge21_Node000001_Node000021"><a xlink:title=" ">
<path fill="none" stroke="#63b8ff" d="M69.22,-772.66C85.82,-764.4 110.15,-752.94 132.25,-745 137.6,-743.08 143.24,-741.25 148.9,-739.54"/>
<polygon fill="#63b8ff" stroke="#63b8ff" points="149.67,-742.96 158.31,-736.83 147.73,-736.24 149.67,-742.96"/>
</a>
</g>
</g>
<!-- Node22 -->
<g id="Node000022" class="node">
<title>Node22</title>
<g id="a_Node000022"><a xlink:href="group__adxl362__basic__driver.html#gacee9c11cbd97c0acf357d1c62d52214b" target="_top" xlink:title="enable or disable inactivity">
<polygon fill="white" stroke="#666666" points="260.75,-698 148,-698 148,-678 260.75,-678 260.75,-698"/>
<text xml:space="preserve" text-anchor="middle" x="204.38" y="-684.5" font-family="Helvetica,sans-Serif" font-size="10.00">adxl362_set_inactivity</text>
</a>
</g>
</g>
<!-- Node1&#45;&gt;Node22 -->
<g id="edge22_Node000001_Node000022" class="edge">
<title>Node1&#45;&gt;Node22</title>
<g id="a_edge22_Node000001_Node000022"><a xlink:title=" ">
<path fill="none" stroke="#63b8ff" d="M57.44,-772.71C71.24,-756.32 100.52,-724.37 132.25,-707 135.29,-705.34 138.49,-703.81 141.77,-702.41"/>
<polygon fill="#63b8ff" stroke="#63b8ff" points="142.93,-705.72 151.05,-698.91 140.46,-699.17 142.93,-705.72"/>
</a>
</g>
</g>
<!-- Node23 -->
<g id="Node000023" class="node">
<title>Node23</title>
<g id="a_Node000023"><a xlink:href="group__adxl362__basic__driver.html#ga2c9c4376ec84b9c63602c3b890efc48e" target="_top" xlink:title="set the inactivity detect trigger mode">
<polygon fill="white" stroke="#666666" points="260.75,-660 148,-660 148,-628 260.75,-628 260.75,-660"/>
<text xml:space="preserve" text-anchor="start" x="156" y="-646.5" font-family="Helvetica,sans-Serif" font-size="10.00">adxl362_set_inactivity</text>
<text xml:space="preserve" text-anchor="middle" x="204.38" y="-634.5" font-family="Helvetica,sans-Serif" font-size="10.00">_detect_trigger</text>
</a>
</g>
</g>
<!-- Node1&#45;&gt;Node23 -->
<g id="edge23_Node000001_Node000023" class="edge">
<title>Node1&#45;&gt;Node23</title>
<g id="a_edge23_Node000001_Node000023"><a xlink:title=" ">
<path fill="none" stroke="#63b8ff" d="M54,-772.55C64.89,-750.31 93.33,-697.94 132.25,-669 134.02,-667.68 135.87,-666.43 137.78,-665.24"/>
<polygon fill="#63b8ff" stroke="#63b8ff" points="139.29,-668.4 146.38,-660.52 135.93,-662.26 139.29,-668.4"/>
</a>
</g>
</g>
<!-- Node24 -->
<g id="Node000024" class="node">
<title>Node24</title>
<g id="a_Node000024"><a xlink:href="group__adxl362__basic__driver.html#ga6196c81ae16b9827171aac19c7283cde" target="_top" xlink:title="set the inactivity threshold">
<polygon fill="white" stroke="#666666" points="260.75,-610 148,-610 148,-578 260.75,-578 260.75,-610"/>
<text xml:space="preserve" text-anchor="start" x="156" y="-596.5" font-family="Helvetica,sans-Serif" font-size="10.00">adxl362_set_inactivity</text>
<text xml:space="preserve" text-anchor="middle" x="204.38" y="-584.5" font-family="Helvetica,sans-Serif" font-size="10.00">_threshold</text>
</a>
</g>
</g>
<!-- Node1&#45;&gt;Node24 -->
<g id="edge24_Node000001_Node000024" class="edge">
<title>Node1&#45;&gt;Node24</title>
<g id="a_edge24_Node000001_Node000024"><a xlink:title=" ">
<path fill="none" stroke="#63b8ff" d="M51.43,-772.89C58.43,-744.46 82.09,-662.98 132.25,-619 134.13,-617.35 136.12,-615.81 138.21,-614.37"/>
<polygon fill="#63b8ff" stroke="#63b8ff" points="139.69,-617.56 146.51,-609.44 136.12,-611.54 139.69,-617.56"/>
</a>
</g>
</g>
<!-- Node25 -->
<g id="Node000025" class="node">
<title>Node25</title>
<g id="a_Node000025"><a xlink:href="group__adxl362__basic__driver.html#ga348040ea4c27ce5192a9cd148e3194b5" target="_top" xlink:title="set the inactivity time">
<polygon fill="white" stroke="#666666" points="272.75,-560 136,-560 136,-540 272.75,-540 272.75,-560"/>
<text xml:space="preserve" text-anchor="middle" x="204.38" y="-546.5" font-family="Helvetica,sans-Serif" font-size="10.00">adxl362_set_inactivity_time</text>
</a>
</g>
</g>
<!-- Node1&#45;&gt;Node25 -->
<g id="edge25_Node000001_Node000025" class="edge">
<title>Node1&#45;&gt;Node25</title>
<g id="a_edge25_Node000001_Node000025"><a xlink:title=" ">
<path fill="none" stroke="#63b8ff" d="M49.93,-772.69C53.18,-738.26 68.43,-626.19 132.25,-569 133.32,-568.04 134.43,-567.13 135.59,-566.26"/>
<polygon fill="#63b8ff" stroke="#63b8ff" points="137.06,-569.46 143.76,-561.26 133.4,-563.5 137.06,-569.46"/>
</a>
</g>
</g>
<!-- Node26 -->
<g id="Node000026" class="node">
<title>Node26</title>
<g id="a_Node000026"><a xlink:href="group__adxl362__basic__driver.html#gaa4565963e38c62604c352385a81cbe04" target="_top" xlink:title="set the interrupt pin1 active level">
<polygon fill="white" stroke="#666666" points="258.88,-522 149.88,-522 149.88,-490 258.88,-490 258.88,-522"/>
<text xml:space="preserve" text-anchor="start" x="157.88" y="-508.5" font-family="Helvetica,sans-Serif" font-size="10.00">adxl362_set_interrupt</text>
<text xml:space="preserve" text-anchor="middle" x="204.38" y="-496.5" font-family="Helvetica,sans-Serif" font-size="10.00">_pin1_active_level</text>
</a>
</g>
</g>
<!-- Node1&#45;&gt;Node26 -->
<g id="edge26_Node000001_Node000026" class="edge">
<title>Node1&#45;&gt;Node26</title>
<g id="a_edge26_Node000001_Node000026"><a xlink:title=" ">
<path fill="none" stroke="#63b8ff" d="M49.43,-772.73C51.09,-735.03 61.93,-602.7 132.25,-531 134.57,-528.63 137.13,-526.49 139.85,-524.55"/>
<polygon fill="#63b8ff" stroke="#63b8ff" points="141.56,-527.61 148.35,-519.48 137.97,-521.6 141.56,-527.61"/>
</a>
</g>
</g>
<!-- Node27 -->
<g id="Node000027" class="node">
<title>Node27</title>
<g id="a_Node000027"><a xlink:href="group__adxl362__basic__driver.html#gabc6e549ad5cbd79edd0747b716c3a042" target="_top" xlink:title="enable or disable interrupt pin1 as the external clock">
<polygon fill="white" stroke="#666666" points="266,-472 142.75,-472 142.75,-440 266,-440 266,-472"/>
<text xml:space="preserve" text-anchor="start" x="150.75" y="-458.5" font-family="Helvetica,sans-Serif" font-size="10.00">adxl362_set_interrupt</text>
<text xml:space="preserve" text-anchor="middle" x="204.38" y="-446.5" font-family="Helvetica,sans-Serif" font-size="10.00">_pin1_as_external_clock</text>
</a>
</g>
</g>
<!-- Node1&#45;&gt;Node27 -->
<g id="edge27_Node000001_Node000027" class="edge">
<title>Node1&#45;&gt;Node27</title>
<g id="a_edge27_Node000001_Node000027"><a xlink:title=" ">
<path fill="none" stroke="#63b8ff" d="M48.76,-772.54C47.88,-730.1 50.27,-568.88 132.25,-481 132.72,-480.49 133.21,-479.99 133.71,-479.51"/>
<polygon fill="#63b8ff" stroke="#63b8ff" points="135.72,-482.38 141.35,-473.4 131.35,-476.91 135.72,-482.38"/>
</a>
</g>
</g>
<!-- Node28 -->
<g id="Node000028" class="node">
<title>Node28</title>
<g id="a_Node000028"><a xlink:href="group__adxl362__basic__driver.html#ga722d68700b98fe4ab35903258ec9052b" target="_top" xlink:title="set the interrupt pin1 map">
<polygon fill="white" stroke="#666666" points="258.88,-422 149.88,-422 149.88,-390 258.88,-390 258.88,-422"/>
<text xml:space="preserve" text-anchor="start" x="157.88" y="-408.5" font-family="Helvetica,sans-Serif" font-size="10.00">adxl362_set_interrupt</text>
<text xml:space="preserve" text-anchor="middle" x="204.38" y="-396.5" font-family="Helvetica,sans-Serif" font-size="10.00">_pin1_map</text>
</a>
</g>
</g>
<!-- Node1&#45;&gt;Node28 -->
<g id="edge28_Node000001_Node000028" class="edge">
<title>Node1&#45;&gt;Node28</title>
<g id="a_edge28_Node000001_Node000028"><a xlink:title=" ">
<path fill="none" stroke="#63b8ff" d="M50.25,-772.51C56.1,-719.77 84.6,-484 132.25,-431 134.58,-428.41 137.2,-426.08 140.01,-424"/>
<polygon fill="#63b8ff" stroke="#63b8ff" points="141.6,-427.13 148.3,-418.92 137.94,-421.16 141.6,-427.13"/>
</a>
</g>
</g>
<!-- Node29 -->
<g id="Node000029" class="node">
<title>Node29</title>
<g id="a_Node000029"><a xlink:href="group__adxl362__basic__driver.html#ga53d0c394247a9337e14db6b02f101ae8" target="_top" xlink:title="set the interrupt pin2 active level">
<polygon fill="white" stroke="#666666" points="258.88,-372 149.88,-372 149.88,-340 258.88,-340 258.88,-372"/>
<text xml:space="preserve" text-anchor="start" x="157.88" y="-358.5" font-family="Helvetica,sans-Serif" font-size="10.00">adxl362_set_interrupt</text>
<text xml:space="preserve" text-anchor="middle" x="204.38" y="-346.5" font-family="Helvetica,sans-Serif" font-size="10.00">_pin2_active_level</text>
</a>
</g>
</g>
<!-- Node1&#45;&gt;Node29 -->
<g id="edge29_Node000001_Node000029" class="edge">
<title>Node1&#45;&gt;Node29</title>
<g id="a_edge29_Node000001_Node000029"><a xlink:title=" ">
<path fill="none" stroke="#63b8ff" d="M49.91,-772.58C54.41,-715.63 78.54,-442.44 132.25,-381 134.54,-378.37 137.13,-376.03 139.93,-373.92"/>
<polygon fill="#63b8ff" stroke="#63b8ff" points="141.51,-377.06 148.16,-368.81 137.82,-371.11 141.51,-377.06"/>
</a>
</g>
</g>
<!-- Node30 -->
<g id="Node000030" class="node">
<title>Node30</title>
<g id="a_Node000030"><a xlink:href="group__adxl362__basic__driver.html#gad9c158c9d5b43f44ba1ca1121af00f7e" target="_top" xlink:title="enable or disable interrupt pin2 as the external sampling trigger">
<polygon fill="white" stroke="#666666" points="273.88,-322 134.88,-322 134.88,-278 273.88,-278 273.88,-322"/>
<text xml:space="preserve" text-anchor="start" x="142.88" y="-308.5" font-family="Helvetica,sans-Serif" font-size="10.00">adxl362_set_interrupt</text>
<text xml:space="preserve" text-anchor="start" x="142.88" y="-296.5" font-family="Helvetica,sans-Serif" font-size="10.00">_pin2_as_external_sampling</text>
<text xml:space="preserve" text-anchor="middle" x="204.38" y="-284.5" font-family="Helvetica,sans-Serif" font-size="10.00">_trigger</text>
</a>
</g>
</g>
<!-- Node1&#45;&gt;Node30 -->
<g id="edge30_Node000001_Node000030" class="edge">
<title>Node1&#45;&gt;Node30</title>
<g id="a_edge30_Node000001_Node000030"><a xlink:title=" ">
<path fill="none" stroke="#63b8ff" d="M49.73,-772.58C53.47,-711.79 75.09,-403.03 132.25,-331 132.41,-330.8 132.57,-330.61 132.73,-330.41"/>
<polygon fill="#63b8ff" stroke="#63b8ff" points="135.09,-333 139.75,-323.48 130.17,-328.02 135.09,-333"/>
</a>
</g>
</g>
<!-- Node31 -->
<g id="Node000031" class="node">
<title>Node31</title>
<g id="a_Node000031"><a xlink:href="group__adxl362__basic__driver.html#ga1b6cd0575d24e065a27408d7e3a9934a" target="_top" xlink:title="set the interrupt pin2 map">
<polygon fill="white" stroke="#666666" points="258.88,-260 149.88,-260 149.88,-228 258.88,-228 258.88,-260"/>
<text xml:space="preserve" text-anchor="start" x="157.88" y="-246.5" font-family="Helvetica,sans-Serif" font-size="10.00">adxl362_set_interrupt</text>
<text xml:space="preserve" text-anchor="middle" x="204.38" y="-234.5" font-family="Helvetica,sans-Serif" font-size="10.00">_pin2_map</text>
</a>
</g>
</g>
<!-- Node1&#45;&gt;Node31 -->
<g id="edge31_Node000001_Node000031" class="edge">
<title>Node1&#45;&gt;Node31</title>
<g id="a_edge31_Node000001_Node000031"><a xlink:title=" ">
<path fill="none" stroke="#63b8ff" d="M49.39,-772.84C51.31,-707.76 64.83,-349.61 132.25,-269 134.53,-266.28 137.12,-263.85 139.94,-261.69"/>
<polygon fill="#63b8ff" stroke="#63b8ff" points="141.69,-264.72 148.3,-256.44 137.97,-258.79 141.69,-264.72"/>
</a>
</g>
</g>
<!-- Node32 -->
<g id="Node000032" class="node">
<title>Node32</title>
<g id="a_Node000032"><a xlink:href="group__adxl362__basic__driver.html#gac63915e71f46c7d59a2a340e81e7fc47" target="_top" xlink:title="set the chip mode">
<polygon fill="white" stroke="#666666" points="253.25,-210 155.5,-210 155.5,-190 253.25,-190 253.25,-210"/>
<text xml:space="preserve" text-anchor="middle" x="204.38" y="-196.5" font-family="Helvetica,sans-Serif" font-size="10.00">adxl362_set_mode</text>
</a>
</g>
</g>
<!-- Node1&#45;&gt;Node32 -->
<g id="edge32_Node000001_Node000032" class="edge">
<title>Node1&#45;&gt;Node32</title>
<g id="a_edge32_Node000001_Node000032"><a xlink:title=" ">
<path fill="none" stroke="#63b8ff" d="M49.16,-772.69C49.58,-703.38 55.36,-305.26 132.25,-219 135.74,-215.08 139.94,-211.93 144.53,-209.41"/>
<polygon fill="#63b8ff" stroke="#63b8ff" points="145.93,-212.62 153.7,-205.42 143.13,-206.2 145.93,-212.62"/>
</a>
</g>
</g>
<!-- Node33 -->
<g id="Node000033" class="node">
<title>Node33</title>
<g id="a_Node000033"><a xlink:href="group__adxl362__basic__driver.html#ga7b2d5db002dd4b992b1716b1de25b182" target="_top" xlink:title="set the noise mode">
<polygon fill="white" stroke="#666666" points="267.5,-172 141.25,-172 141.25,-152 267.5,-152 267.5,-172"/>
<text xml:space="preserve" text-anchor="middle" x="204.38" y="-158.5" font-family="Helvetica,sans-Serif" font-size="10.00">adxl362_set_noise_mode</text>
</a>
</g>
</g>
<!-- Node1&#45;&gt;Node33 -->
<g id="edge33_Node000001_Node000033" class="edge">
<title>Node1&#45;&gt;Node33</title>
<g id="a_edge33_Node000001_Node000033"><a xlink:title=" ">
<path fill="none" stroke="#63b8ff" d="M49.05,-772.94C48.75,-701.7 50.36,-273.72 132.25,-181 132.82,-180.35 133.41,-179.73 134.02,-179.12"/>
<polygon fill="#63b8ff" stroke="#63b8ff" points="135.84,-182.14 141.62,-173.26 131.57,-176.59 135.84,-182.14"/>
</a>
</g>
</g>
<!-- Node34 -->
<g id="Node000034" class="node">
<title>Node34</title>
<g id="a_Node000034"><a xlink:href="group__adxl362__basic__driver.html#gaff431474d1e12d2f38a92cba97af5745" target="_top" xlink:title="set the output data rate">
<polygon fill="white" stroke="#666666" points="248,-134 160.75,-134 160.75,-114 248,-114 248,-134"/>
<text xml:space="preserve" text-anchor="middle" x="204.38" y="-120.5" font-family="Helvetica,sans-Serif" font-size="10.00">adxl362_set_odr</text>
</a>
</g>
</g>
<!-- Node1&#45;&gt;Node34 -->
<g id="edge34_Node000001_Node000034" class="edge">
<title>Node1&#45;&gt;Node34</title>
<g id="a_edge34_Node000001_Node000034"><a xlink:title=" ">
<path fill="none" stroke="#63b8ff" d="M48.96,-772.79C47.97,-698.55 45.49,-242.02 132.25,-143 137,-137.57 143.12,-133.62 149.76,-130.75"/>
<polygon fill="#63b8ff" stroke="#63b8ff" points="150.76,-134.1 159.09,-127.56 148.49,-127.48 150.76,-134.1"/>
</a>
</g>
</g>
<!-- Node35 -->
<g id="Node000035" class="node">
<title>Node35</title>
<g id="a_Node000035"><a xlink:href="group__adxl362__basic__driver.html#ga17145b1a5c9e0254bb22ab35419cd554" target="_top" xlink:title="set the measurement range">
<polygon fill="white" stroke="#666666" points="253.25,-96 155.5,-96 155.5,-76 253.25,-76 253.25,-96"/>
<text xml:space="preserve" text-anchor="middle" x="204.38" y="-82.5" font-family="Helvetica,sans-Serif" font-size="10.00">adxl362_set_range</text>
</a>
</g>
</g>
<!-- Node1&#45;&gt;Node35 -->
<g id="edge35_Node000001_Node000035" class="edge">
<title>Node1&#45;&gt;Node35</title>
<g id="a_edge35_Node000001_Node000035"><a xlink:title=" ">
<path fill="none" stroke="#63b8ff" d="M49.7,-772.72C54.3,-691.7 86.23,-157.9 132.25,-105 135.84,-100.88 140.21,-97.6 145,-95.01"/>
<polygon fill="#63b8ff" stroke="#63b8ff" points="146.12,-98.33 153.93,-91.17 143.36,-91.9 146.12,-98.33"/>
</a>
</g>
</g>
<!-- Node36 -->
<g id="Node000036" class="node">
<title>Node36</title>
<g id="a_Node000036"><a xlink:href="group__adxl362__basic__driver.html#ga4e57ac3652bda25bc67c9350da542558" target="_top" xlink:title="enable or disable the self test">
<polygon fill="white" stroke="#666666" points="260,-58 148.75,-58 148.75,-38 260,-38 260,-58"/>
<text xml:space="preserve" text-anchor="middle" x="204.38" y="-44.5" font-family="Helvetica,sans-Serif" font-size="10.00">adxl362_set_self_test</text>
</a>
</g>
</g>
<!-- Node1&#45;&gt;Node36 -->
<g id="edge36_Node000001_Node000036" class="edge">
<title>Node1&#45;&gt;Node36</title>
<g id="a_edge36_Node000001_Node000036"><a xlink:title=" ">
<path fill="none" stroke="#63b8ff" d="M49.63,-772.68C53.81,-688.99 83.77,-123.1 132.25,-67 134.19,-64.76 136.36,-62.77 138.7,-61"/>
<polygon fill="#63b8ff" stroke="#63b8ff" points="140.35,-64.09 147.18,-55.99 136.79,-58.06 140.35,-64.09"/>
</a>
</g>
</g>
<!-- Node37 -->
<g id="Node000037" class="node">
<title>Node37</title>
<g id="a_Node000037"><a xlink:href="group__adxl362__basic__driver.html#ga5f5f20b381d785a97bf8a6aa95a25896" target="_top" xlink:title="enable or disable chip wake up">
<polygon fill="white" stroke="#666666" points="260.75,-20 148,-20 148,0 260.75,0 260.75,-20"/>
<text xml:space="preserve" text-anchor="middle" x="204.38" y="-6.5" font-family="Helvetica,sans-Serif" font-size="10.00">adxl362_set_wake_up</text>
</a>
</g>
</g>
<!-- Node1&#45;&gt;Node37 -->
<g id="edge37_Node000001_Node000037" class="edge">
<title>Node1&#45;&gt;Node37</title>
<g id="a_edge37_Node000001_Node000037"><a xlink:title=" ">
<path fill="none" stroke="#63b8ff" d="M49.57,-772.69C53.34,-686.53 81.29,-88.31 132.25,-29 134.11,-26.84 136.18,-24.91 138.42,-23.18"/>
<polygon fill="#63b8ff" stroke="#63b8ff" points="139.73,-26.48 146.47,-18.31 136.1,-20.5 139.73,-26.48"/>
</a>
</g>
</g>
<!-- Node6&#45;&gt;Node4 -->
<g id="edge6_Node000006_Node000004" class="edge">
<title>Node6&#45;&gt;Node4</title>
<g id="a_edge6_Node000006_Node000004"><a xlink:title=" ">
<path fill="none" stroke="#63b8ff" d="M269.42,-1377.62C279.82,-1380.15 290.65,-1382.8 301.23,-1385.38"/>
<polygon fill="#63b8ff" stroke="#63b8ff" points="300.12,-1388.71 310.66,-1387.68 301.78,-1381.91 300.12,-1388.71"/>
</a>
</g>
</g>
</g>
</svg>
