<?xml version="1.0" encoding="UTF-8" standalone="no"?>
<!DOCTYPE svg PUBLIC "-//W3C//DTD SVG 1.1//EN"
 "http://www.w3.org/Graphics/SVG/1.1/DTD/svg11.dtd">
<!-- Generated by graphviz version 13.1.0 (20250701.0955)
 -->
<!-- Title: adxl362_motion_init Pages: 1 -->
<svg width="291pt" height="1750pt"
 viewBox="0.00 0.00 291.00 1750.00" xmlns="http://www.w3.org/2000/svg" xmlns:xlink="http://www.w3.org/1999/xlink">
<g id="graph0" class="graph" transform="scale(1 1) rotate(0) translate(4 1746)">
<title>adxl362_motion_init</title>
<!-- Node1 -->
<g id="Node000001" class="node">
<title>Node1</title>
<g id="a_Node000001"><a xlink:title="motion example init">
<polygon fill="#999999" stroke="#666666" points="102.25,-869 0,-869 0,-849 102.25,-849 102.25,-869"/>
<text xml:space="preserve" text-anchor="middle" x="51.12" y="-855.5" font-family="Helvetica,sans-Serif" font-size="10.00">adxl362_motion_init</text>
</a>
</g>
</g>
<!-- Node2 -->
<g id="Node000002" class="node">
<title>Node2</title>
<g id="a_Node000002"><a xlink:href="group__adxl362__basic__driver.html#ga82e716ff8cd186aea3bdf3ee3087c02c" target="_top" xlink:title="convert the activity threshold to the register raw data">
<polygon fill="white" stroke="#666666" points="276.12,-1742 144.62,-1742 144.62,-1710 276.12,-1710 276.12,-1742"/>
<text xml:space="preserve" text-anchor="start" x="152.62" y="-1728.5" font-family="Helvetica,sans-Serif" font-size="10.00">adxl362_activity_threshold</text>
<text xml:space="preserve" text-anchor="middle" x="210.38" y="-1716.5" font-family="Helvetica,sans-Serif" font-size="10.00">_convert_to_register</text>
</a>
</g>
</g>
<!-- Node1&#45;&gt;Node2 -->
<g id="edge1_Node000001_Node000002" class="edge">
<title>Node1&#45;&gt;Node2</title>
<g id="a_edge1_Node000001_Node000002"><a xlink:title=" ">
<path fill="none" stroke="#63b8ff" d="M52.52,-869.3C56.08,-960.77 84.02,-1632.18 138.25,-1701 138.49,-1701.31 138.74,-1701.61 138.99,-1701.91"/>
<polygon fill="#63b8ff" stroke="#63b8ff" points="136.45,-1704.33 146.15,-1708.6 141.23,-1699.22 136.45,-1704.33"/>
</a>
</g>
</g>
<!-- Node3 -->
<g id="Node000003" class="node">
<title>Node3</title>
<g id="a_Node000003"><a xlink:href="group__adxl362__basic__driver.html#gad17868b93efe0805b8f0aa4830a959f9" target="_top" xlink:title="convert the activity time to the register raw data">
<polygon fill="white" stroke="#666666" points="265.62,-1692 155.12,-1692 155.12,-1660 265.62,-1660 265.62,-1692"/>
<text xml:space="preserve" text-anchor="start" x="163.12" y="-1678.5" font-family="Helvetica,sans-Serif" font-size="10.00">adxl362_activity_time</text>
<text xml:space="preserve" text-anchor="middle" x="210.38" y="-1666.5" font-family="Helvetica,sans-Serif" font-size="10.00">_convert_to_register</text>
</a>
</g>
</g>
<!-- Node1&#45;&gt;Node3 -->
<g id="edge2_Node000001_Node000003" class="edge">
<title>Node1&#45;&gt;Node3</title>
<g id="a_edge2_Node000001_Node000003"><a xlink:title=" ">
<path fill="none" stroke="#63b8ff" d="M52.58,-869.24C56.62,-957.39 87.11,-1586.52 138.25,-1651 140.35,-1653.64 142.74,-1656.01 145.36,-1658.12"/>
<polygon fill="#63b8ff" stroke="#63b8ff" points="143.41,-1661.03 153.69,-1663.57 147.24,-1655.17 143.41,-1661.03"/>
</a>
</g>
</g>
<!-- Node4 -->
<g id="Node000004" class="node">
<title>Node4</title>
<g id="a_Node000004"><a xlink:href="group__adxl362__basic__driver.html#gafb79238b7df22b689d36ba3dc2ed33ae" target="_top" xlink:title="close the chip">
<polygon fill="white" stroke="#666666" points="249.5,-1642 171.25,-1642 171.25,-1622 249.5,-1622 249.5,-1642"/>
<text xml:space="preserve" text-anchor="middle" x="210.38" y="-1628.5" font-family="Helvetica,sans-Serif" font-size="10.00">adxl362_deinit</text>
</a>
</g>
</g>
<!-- Node1&#45;&gt;Node4 -->
<g id="edge3_Node000001_Node000004" class="edge">
<title>Node1&#45;&gt;Node4</title>
<g id="a_edge3_Node000001_Node000004"><a xlink:title=" ">
<path fill="none" stroke="#63b8ff" d="M52.61,-869.32C56.74,-955.48 87.15,-1553.76 138.25,-1613 143.94,-1619.59 151.64,-1624.02 159.87,-1626.98"/>
<polygon fill="#63b8ff" stroke="#63b8ff" points="158.86,-1630.33 169.43,-1629.65 160.74,-1623.58 158.86,-1630.33"/>
</a>
</g>
</g>
<!-- Node5 -->
<g id="Node000005" class="node">
<title>Node5</title>
<g id="a_Node000005"><a xlink:href="group__adxl362__basic__driver.html#gadd308a98b0902a69085f9316ae8df6ad" target="_top" xlink:title="get the chip status">
<polygon fill="white" stroke="#666666" points="260.75,-1604 160,-1604 160,-1584 260.75,-1584 260.75,-1604"/>
<text xml:space="preserve" text-anchor="middle" x="210.38" y="-1590.5" font-family="Helvetica,sans-Serif" font-size="10.00">adxl362_get_status</text>
</a>
</g>
</g>
<!-- Node1&#45;&gt;Node5 -->
<g id="edge4_Node000001_Node000005" class="edge">
<title>Node1&#45;&gt;Node5</title>
<g id="a_edge4_Node000001_Node000005"><a xlink:title=" ">
<path fill="none" stroke="#63b8ff" d="M52.67,-869.32C57.22,-953.02 89.63,-1518.97 138.25,-1575 141.45,-1578.69 145.29,-1581.71 149.49,-1584.16"/>
<polygon fill="#63b8ff" stroke="#63b8ff" points="147.93,-1587.29 158.48,-1588.3 150.86,-1580.94 147.93,-1587.29"/>
</a>
</g>
</g>
<!-- Node6 -->
<g id="Node000006" class="node">
<title>Node6</title>
<g id="a_Node000006"><a xlink:href="group__adxl362__basic__driver.html#gad837e1d8bc5e2fa8eb9febb005f576f6" target="_top" xlink:title="convert the inactivity threshold to the register raw data">
<polygon fill="white" stroke="#666666" points="266.38,-1566 154.38,-1566 154.38,-1522 266.38,-1522 266.38,-1566"/>
<text xml:space="preserve" text-anchor="start" x="162.38" y="-1552.5" font-family="Helvetica,sans-Serif" font-size="10.00">adxl362_inactivity</text>
<text xml:space="preserve" text-anchor="start" x="162.38" y="-1540.5" font-family="Helvetica,sans-Serif" font-size="10.00">_threshold_convert_to</text>
<text xml:space="preserve" text-anchor="middle" x="210.38" y="-1528.5" font-family="Helvetica,sans-Serif" font-size="10.00">_register</text>
</a>
</g>
</g>
<!-- Node1&#45;&gt;Node6 -->
<g id="edge5_Node000001_Node000006" class="edge">
<title>Node1&#45;&gt;Node6</title>
<g id="a_edge5_Node000001_Node000006"><a xlink:title=" ">
<path fill="none" stroke="#63b8ff" d="M52.13,-869.31C52.4,-944.26 57.31,-1405.5 138.25,-1513 140.22,-1515.62 142.47,-1518.03 144.91,-1520.23"/>
<polygon fill="#63b8ff" stroke="#63b8ff" points="142.58,-1522.86 152.68,-1526.07 146.79,-1517.26 142.58,-1522.86"/>
</a>
</g>
</g>
<!-- Node7 -->
<g id="Node000007" class="node">
<title>Node7</title>
<g id="a_Node000007"><a xlink:href="group__adxl362__basic__driver.html#gab0fe0de7fa23bcdcbdb631719f844c43" target="_top" xlink:title="convert the inactivity time to the register raw data">
<polygon fill="white" stroke="#666666" points="274.62,-1504 146.12,-1504 146.12,-1472 274.62,-1472 274.62,-1504"/>
<text xml:space="preserve" text-anchor="start" x="154.12" y="-1490.5" font-family="Helvetica,sans-Serif" font-size="10.00">adxl362_inactivity</text>
<text xml:space="preserve" text-anchor="middle" x="210.38" y="-1478.5" font-family="Helvetica,sans-Serif" font-size="10.00">_time_convert_to_register</text>
</a>
</g>
</g>
<!-- Node1&#45;&gt;Node7 -->
<g id="edge6_Node000001_Node000007" class="edge">
<title>Node1&#45;&gt;Node7</title>
<g id="a_edge6_Node000001_Node000007"><a xlink:title=" ">
<path fill="none" stroke="#63b8ff" d="M52.18,-869.49C52.78,-941.89 59.63,-1367.2 138.25,-1463 138.5,-1463.3 138.75,-1463.6 139.01,-1463.9"/>
<polygon fill="#63b8ff" stroke="#63b8ff" points="136.53,-1466.37 146.29,-1470.49 141.23,-1461.19 136.53,-1466.37"/>
</a>
</g>
</g>
<!-- Node8 -->
<g id="Node000008" class="node">
<title>Node8</title>
<g id="a_Node000008"><a xlink:href="group__adxl362__basic__driver.html#ga506084e26ed22be0b8b29a88dad1d726" target="_top" xlink:title="initialize the chip">
<polygon fill="white" stroke="#666666" points="244.25,-1454 176.5,-1454 176.5,-1434 244.25,-1434 244.25,-1454"/>
<text xml:space="preserve" text-anchor="middle" x="210.38" y="-1440.5" font-family="Helvetica,sans-Serif" font-size="10.00">adxl362_init</text>
</a>
</g>
</g>
<!-- Node1&#45;&gt;Node8 -->
<g id="edge7_Node000001_Node000008" class="edge">
<title>Node1&#45;&gt;Node8</title>
<g id="a_edge7_Node000001_Node000008"><a xlink:title=" ">
<path fill="none" stroke="#63b8ff" d="M52.21,-869.34C52.99,-938.92 60.83,-1338.56 138.25,-1425 145.26,-1432.83 155.11,-1437.59 165.25,-1440.45"/>
<polygon fill="#63b8ff" stroke="#63b8ff" points="164.25,-1443.81 174.77,-1442.53 165.74,-1436.97 164.25,-1443.81"/>
</a>
</g>
</g>
<!-- Node9 -->
<g id="Node000009" class="node">
<title>Node9</title>
<g id="a_Node000009"><a xlink:href="group__adxl362__interface__driver.html#ga5283f1a5c7e10c84d63f7dc39ae0638b" target="_top" xlink:title="interface print format data">
<polygon fill="white" stroke="#666666" points="272.38,-1416 148.38,-1416 148.38,-1384 272.38,-1384 272.38,-1416"/>
<text xml:space="preserve" text-anchor="start" x="156.38" y="-1402.5" font-family="Helvetica,sans-Serif" font-size="10.00">adxl362_interface_debug</text>
<text xml:space="preserve" text-anchor="middle" x="210.38" y="-1390.5" font-family="Helvetica,sans-Serif" font-size="10.00">_print</text>
</a>
</g>
</g>
<!-- Node1&#45;&gt;Node9 -->
<g id="edge8_Node000001_Node000009" class="edge">
<title>Node1&#45;&gt;Node9</title>
<g id="a_edge8_Node000001_Node000009"><a xlink:title=" ">
<path fill="none" stroke="#63b8ff" d="M52.45,-869.2C54.74,-934.55 70.31,-1294.18 138.25,-1375 138.7,-1375.53 139.16,-1376.05 139.63,-1376.56"/>
<polygon fill="#63b8ff" stroke="#63b8ff" points="137.13,-1379.03 146.99,-1382.9 141.7,-1373.73 137.13,-1379.03"/>
</a>
</g>
</g>
<!-- Node10 -->
<g id="Node000010" class="node">
<title>Node10</title>
<g id="a_Node000010"><a xlink:href="group__adxl362__interface__driver.html#ga29e7b7e01bd947f1b4ce978dde67abcf" target="_top" xlink:title="interface delay ms">
<polygon fill="white" stroke="#666666" points="280.25,-1366 140.5,-1366 140.5,-1346 280.25,-1346 280.25,-1366"/>
<text xml:space="preserve" text-anchor="middle" x="210.38" y="-1352.5" font-family="Helvetica,sans-Serif" font-size="10.00">adxl362_interface_delay_ms</text>
</a>
</g>
</g>
<!-- Node1&#45;&gt;Node10 -->
<g id="edge9_Node000001_Node000010" class="edge">
<title>Node1&#45;&gt;Node10</title>
<g id="a_edge9_Node000001_Node000010"><a xlink:title=" ">
<path fill="none" stroke="#63b8ff" d="M52.52,-869.32C55.17,-932.37 72.15,-1265.19 138.25,-1337 138.83,-1337.63 139.44,-1338.25 140.06,-1338.84"/>
<polygon fill="#63b8ff" stroke="#63b8ff" points="137.66,-1341.42 147.77,-1344.62 141.86,-1335.82 137.66,-1341.42"/>
</a>
</g>
</g>
<!-- Node11 -->
<g id="Node000011" class="node">
<title>Node11</title>
<g id="a_Node000011"><a xlink:href="group__adxl362__interface__driver.html#ga262246f67f1493797eb53cce56bce778" target="_top" xlink:title="interface spi bus deinit">
<polygon fill="white" stroke="#666666" points="265.62,-1328 155.12,-1328 155.12,-1296 265.62,-1296 265.62,-1328"/>
<text xml:space="preserve" text-anchor="start" x="163.12" y="-1314.5" font-family="Helvetica,sans-Serif" font-size="10.00">adxl362_interface_spi</text>
<text xml:space="preserve" text-anchor="middle" x="210.38" y="-1302.5" font-family="Helvetica,sans-Serif" font-size="10.00">_deinit</text>
</a>
</g>
</g>
<!-- Node1&#45;&gt;Node11 -->
<g id="edge10_Node000001_Node000011" class="edge">
<title>Node1&#45;&gt;Node11</title>
<g id="a_edge10_Node000001_Node000011"><a xlink:title=" ">
<path fill="none" stroke="#63b8ff" d="M52.84,-869.31C57.11,-928.16 81.06,-1221.22 138.25,-1287 140.31,-1289.37 142.61,-1291.52 145.09,-1293.46"/>
<polygon fill="#63b8ff" stroke="#63b8ff" points="143.14,-1296.37 153.45,-1298.83 146.92,-1290.48 143.14,-1296.37"/>
</a>
</g>
</g>
<!-- Node12 -->
<g id="Node000012" class="node">
<title>Node12</title>
<g id="a_Node000012"><a xlink:href="group__adxl362__interface__driver.html#ga27d300b48903bd4c91c3ae687e7b2a8b" target="_top" xlink:title="interface spi bus init">
<polygon fill="white" stroke="#666666" points="274.62,-1278 146.12,-1278 146.12,-1258 274.62,-1258 274.62,-1278"/>
<text xml:space="preserve" text-anchor="middle" x="210.38" y="-1264.5" font-family="Helvetica,sans-Serif" font-size="10.00">adxl362_interface_spi_init</text>
</a>
</g>
</g>
<!-- Node1&#45;&gt;Node12 -->
<g id="edge11_Node000001_Node000012" class="edge">
<title>Node1&#45;&gt;Node12</title>
<g id="a_edge11_Node000001_Node000012"><a xlink:title=" ">
<path fill="none" stroke="#63b8ff" d="M52.96,-869.19C57.75,-924.83 83.35,-1191.65 138.25,-1249 138.86,-1249.64 139.5,-1250.26 140.14,-1250.86"/>
<polygon fill="#63b8ff" stroke="#63b8ff" points="138.07,-1253.68 148.23,-1256.69 142.17,-1248 138.07,-1253.68"/>
</a>
</g>
</g>
<!-- Node13 -->
<g id="Node000013" class="node">
<title>Node13</title>
<g id="a_Node000013"><a xlink:href="group__adxl362__interface__driver.html#ga20cdc94dfe4d6359a235d8b97b75509a" target="_top" xlink:title="interface spi bus read">
<polygon fill="white" stroke="#666666" points="277.62,-1240 143.12,-1240 143.12,-1220 277.62,-1220 277.62,-1240"/>
<text xml:space="preserve" text-anchor="middle" x="210.38" y="-1226.5" font-family="Helvetica,sans-Serif" font-size="10.00">adxl362_interface_spi_read</text>
</a>
</g>
</g>
<!-- Node1&#45;&gt;Node13 -->
<g id="edge12_Node000001_Node000013" class="edge">
<title>Node1&#45;&gt;Node13</title>
<g id="a_edge12_Node000001_Node000013"><a xlink:title=" ">
<path fill="none" stroke="#63b8ff" d="M53.23,-869.22C59.09,-921.63 88.18,-1159.87 138.25,-1211 138.99,-1211.76 139.76,-1212.49 140.56,-1213.19"/>
<polygon fill="#63b8ff" stroke="#63b8ff" points="138.43,-1215.97 148.64,-1218.82 142.43,-1210.23 138.43,-1215.97"/>
</a>
</g>
</g>
<!-- Node14 -->
<g id="Node000014" class="node">
<title>Node14</title>
<g id="a_Node000014"><a xlink:href="group__adxl362__interface__driver.html#gaa018ac4218e07d4561318215032cb3f1" target="_top" xlink:title="interface spi bus read">
<polygon fill="white" stroke="#666666" points="265.62,-1202 155.12,-1202 155.12,-1170 265.62,-1170 265.62,-1202"/>
<text xml:space="preserve" text-anchor="start" x="163.12" y="-1188.5" font-family="Helvetica,sans-Serif" font-size="10.00">adxl362_interface_spi</text>
<text xml:space="preserve" text-anchor="middle" x="210.38" y="-1176.5" font-family="Helvetica,sans-Serif" font-size="10.00">_read_address16</text>
</a>
</g>
</g>
<!-- Node1&#45;&gt;Node14 -->
<g id="edge13_Node000001_Node000014" class="edge">
<title>Node1&#45;&gt;Node14</title>
<g id="a_edge13_Node000001_Node000014"><a xlink:title=" ">
<path fill="none" stroke="#63b8ff" d="M51.88,-869.47C51.48,-911.95 55.65,-1073.27 138.25,-1161 140.36,-1163.25 142.69,-1165.29 145.18,-1167.15"/>
<polygon fill="#63b8ff" stroke="#63b8ff" points="143.13,-1170 153.47,-1172.32 146.83,-1164.06 143.13,-1170"/>
</a>
</g>
</g>
<!-- Node15 -->
<g id="Node000015" class="node">
<title>Node15</title>
<g id="a_Node000015"><a xlink:href="group__adxl362__interface__driver.html#ga2e1918bc77d354ac7c4606ef8490765c" target="_top" xlink:title="interface spi bus write">
<polygon fill="white" stroke="#666666" points="265.62,-1152 155.12,-1152 155.12,-1120 265.62,-1120 265.62,-1152"/>
<text xml:space="preserve" text-anchor="start" x="163.12" y="-1138.5" font-family="Helvetica,sans-Serif" font-size="10.00">adxl362_interface_spi</text>
<text xml:space="preserve" text-anchor="middle" x="210.38" y="-1126.5" font-family="Helvetica,sans-Serif" font-size="10.00">_write_address16</text>
</a>
</g>
</g>
<!-- Node1&#45;&gt;Node15 -->
<g id="edge14_Node000001_Node000015" class="edge">
<title>Node1&#45;&gt;Node15</title>
<g id="a_edge14_Node000001_Node000015"><a xlink:title=" ">
<path fill="none" stroke="#63b8ff" d="M52.56,-869.28C54.73,-907.01 67.29,-1039.42 138.25,-1111 140.31,-1113.07 142.54,-1114.98 144.92,-1116.72"/>
<polygon fill="#63b8ff" stroke="#63b8ff" points="142.99,-1119.65 153.35,-1121.91 146.66,-1113.69 142.99,-1119.65"/>
</a>
</g>
</g>
<!-- Node16 -->
<g id="Node000016" class="node">
<title>Node16</title>
<g id="a_Node000016"><a xlink:href="group__adxl362__basic__driver.html#gaddb0b038493d4e43ef3aa9ed1c09d2b6" target="_top" xlink:title="enable or disable activity">
<polygon fill="white" stroke="#666666" points="263,-1102 157.75,-1102 157.75,-1082 263,-1082 263,-1102"/>
<text xml:space="preserve" text-anchor="middle" x="210.38" y="-1088.5" font-family="Helvetica,sans-Serif" font-size="10.00">adxl362_set_activity</text>
</a>
</g>
</g>
<!-- Node1&#45;&gt;Node16 -->
<g id="edge15_Node000001_Node000016" class="edge">
<title>Node1&#45;&gt;Node16</title>
<g id="a_edge15_Node000001_Node000016"><a xlink:title=" ">
<path fill="none" stroke="#63b8ff" d="M53.08,-869.32C56.85,-903.78 73.78,-1015.93 138.25,-1073 141.03,-1075.46 144.08,-1077.6 147.33,-1079.47"/>
<polygon fill="#63b8ff" stroke="#63b8ff" points="145.61,-1082.53 156.14,-1083.65 148.61,-1076.2 145.61,-1082.53"/>
</a>
</g>
</g>
<!-- Node17 -->
<g id="Node000017" class="node">
<title>Node17</title>
<g id="a_Node000017"><a xlink:href="group__adxl362__basic__driver.html#gab816ec16044e5007a7d6184446373bf0" target="_top" xlink:title="set the activity detect trigger mode">
<polygon fill="white" stroke="#666666" points="263,-1064 157.75,-1064 157.75,-1032 263,-1032 263,-1064"/>
<text xml:space="preserve" text-anchor="start" x="165.75" y="-1050.5" font-family="Helvetica,sans-Serif" font-size="10.00">adxl362_set_activity</text>
<text xml:space="preserve" text-anchor="middle" x="210.38" y="-1038.5" font-family="Helvetica,sans-Serif" font-size="10.00">_detect_trigger</text>
</a>
</g>
</g>
<!-- Node1&#45;&gt;Node17 -->
<g id="edge16_Node000001_Node000017" class="edge">
<title>Node1&#45;&gt;Node17</title>
<g id="a_edge16_Node000001_Node000017"><a xlink:title=" ">
<path fill="none" stroke="#63b8ff" d="M54.63,-869.11C62.17,-897.55 87.39,-979.05 138.25,-1023 141.07,-1025.44 144.15,-1027.64 147.39,-1029.64"/>
<polygon fill="#63b8ff" stroke="#63b8ff" points="145.68,-1032.7 156.15,-1034.3 148.97,-1026.52 145.68,-1032.7"/>
</a>
</g>
</g>
<!-- Node18 -->
<g id="Node000018" class="node">
<title>Node18</title>
<g id="a_Node000018"><a xlink:href="group__adxl362__basic__driver.html#ga7cb81a252dd49dc770ad8335acae9caf" target="_top" xlink:title="set the activity threshold">
<polygon fill="white" stroke="#666666" points="263,-1014 157.75,-1014 157.75,-982 263,-982 263,-1014"/>
<text xml:space="preserve" text-anchor="start" x="165.75" y="-1000.5" font-family="Helvetica,sans-Serif" font-size="10.00">adxl362_set_activity</text>
<text xml:space="preserve" text-anchor="middle" x="210.38" y="-988.5" font-family="Helvetica,sans-Serif" font-size="10.00">_threshold</text>
</a>
</g>
</g>
<!-- Node1&#45;&gt;Node18 -->
<g id="edge17_Node000001_Node000018" class="edge">
<title>Node1&#45;&gt;Node18</title>
<g id="a_edge17_Node000001_Node000018"><a xlink:title=" ">
<path fill="none" stroke="#63b8ff" d="M57.28,-869.44C68.76,-891.68 98.59,-944.03 138.25,-973 141.07,-975.06 144.07,-976.96 147.18,-978.71"/>
<polygon fill="#63b8ff" stroke="#63b8ff" points="145.57,-981.82 156.08,-983.14 148.69,-975.55 145.57,-981.82"/>
</a>
</g>
</g>
<!-- Node19 -->
<g id="Node000019" class="node">
<title>Node19</title>
<g id="a_Node000019"><a xlink:href="group__adxl362__basic__driver.html#ga8fe096454d1219f84b7e642ce0c1e4b1" target="_top" xlink:title="set the activity time">
<polygon fill="white" stroke="#666666" points="275,-964 145.75,-964 145.75,-944 275,-944 275,-964"/>
<text xml:space="preserve" text-anchor="middle" x="210.38" y="-950.5" font-family="Helvetica,sans-Serif" font-size="10.00">adxl362_set_activity_time</text>
</a>
</g>
</g>
<!-- Node1&#45;&gt;Node19 -->
<g id="edge18_Node000001_Node000019" class="edge">
<title>Node1&#45;&gt;Node19</title>
<g id="a_edge18_Node000001_Node000019"><a xlink:title=" ">
<path fill="none" stroke="#63b8ff" d="M60.82,-869.27C75.24,-885.64 105.73,-917.57 138.25,-935 141.31,-936.64 144.51,-938.14 147.8,-939.52"/>
<polygon fill="#63b8ff" stroke="#63b8ff" points="146.51,-942.78 157.1,-942.99 148.96,-936.22 146.51,-942.78"/>
</a>
</g>
</g>
<!-- Node20 -->
<g id="Node000020" class="node">
<title>Node20</title>
<g id="a_Node000020"><a xlink:href="group__adxl362__basic__driver.html#gae02655258f9e2e31bc71e1f7a2e637b9" target="_top" xlink:title="enable or disable auto sleep">
<polygon fill="white" stroke="#666666" points="270.88,-926 149.88,-926 149.88,-906 270.88,-906 270.88,-926"/>
<text xml:space="preserve" text-anchor="middle" x="210.38" y="-912.5" font-family="Helvetica,sans-Serif" font-size="10.00">adxl362_set_auto_sleep</text>
</a>
</g>
</g>
<!-- Node1&#45;&gt;Node20 -->
<g id="edge19_Node000001_Node000020" class="edge">
<title>Node1&#45;&gt;Node20</title>
<g id="a_edge19_Node000001_Node000020"><a xlink:title=" ">
<path fill="none" stroke="#63b8ff" d="M73.34,-869.46C90.55,-877.68 115.59,-889.03 138.25,-897 143.61,-898.89 149.26,-900.69 154.93,-902.39"/>
<polygon fill="#63b8ff" stroke="#63b8ff" points="153.76,-905.69 164.34,-905.08 155.69,-898.96 153.76,-905.69"/>
</a>
</g>
</g>
<!-- Node21 -->
<g id="Node000021" class="node">
<title>Node21</title>
<g id="a_Node000021"><a xlink:href="group__adxl362__basic__driver.html#gafafaaf950e977fd12f614577948f7744" target="_top" xlink:title="set the filter bandwidth">
<polygon fill="white" stroke="#666666" points="269.38,-888 151.38,-888 151.38,-868 269.38,-868 269.38,-888"/>
<text xml:space="preserve" text-anchor="middle" x="210.38" y="-874.5" font-family="Helvetica,sans-Serif" font-size="10.00">adxl362_set_bandwidth</text>
</a>
</g>
</g>
<!-- Node1&#45;&gt;Node21 -->
<g id="edge20_Node000001_Node000021" class="edge">
<title>Node1&#45;&gt;Node21</title>
<g id="a_edge20_Node000001_Node000021"><a xlink:title=" ">
<path fill="none" stroke="#63b8ff" d="M102.75,-865.12C114.5,-866.54 127.22,-868.07 139.63,-869.57"/>
<polygon fill="#63b8ff" stroke="#63b8ff" points="139.06,-873.03 149.41,-870.75 139.9,-866.08 139.06,-873.03"/>
</a>
</g>
</g>
<!-- Node22 -->
<g id="Node000022" class="node">
<title>Node22</title>
<g id="a_Node000022"><a xlink:href="group__adxl362__basic__driver.html#ga5251ad6b57744dd2e929d87c9d8f29b1" target="_top" xlink:title="set the detect mode">
<polygon fill="white" stroke="#666666" points="275.38,-850 145.38,-850 145.38,-830 275.38,-830 275.38,-850"/>
<text xml:space="preserve" text-anchor="middle" x="210.38" y="-836.5" font-family="Helvetica,sans-Serif" font-size="10.00">adxl362_set_detect_mode</text>
</a>
</g>
</g>
<!-- Node1&#45;&gt;Node22 -->
<g id="edge21_Node000001_Node000022" class="edge">
<title>Node1&#45;&gt;Node22</title>
<g id="a_edge21_Node000001_Node000022"><a xlink:title=" ">
<path fill="none" stroke="#63b8ff" d="M102.75,-852.88C112.64,-851.69 123.21,-850.41 133.71,-849.14"/>
<polygon fill="#63b8ff" stroke="#63b8ff" points="134.03,-852.63 143.53,-847.96 133.19,-845.68 134.03,-852.63"/>
</a>
</g>
</g>
<!-- Node23 -->
<g id="Node000023" class="node">
<title>Node23</title>
<g id="a_Node000023"><a xlink:href="group__adxl362__basic__driver.html#ga372b66994085d01dcaadefb92862d85f" target="_top" xlink:title="set the fifo mode">
<polygon fill="white" stroke="#666666" points="268.62,-812 152.12,-812 152.12,-792 268.62,-792 268.62,-812"/>
<text xml:space="preserve" text-anchor="middle" x="210.38" y="-798.5" font-family="Helvetica,sans-Serif" font-size="10.00">adxl362_set_fifo_mode</text>
</a>
</g>
</g>
<!-- Node1&#45;&gt;Node23 -->
<g id="edge22_Node000001_Node000023" class="edge">
<title>Node1&#45;&gt;Node23</title>
<g id="a_edge22_Node000001_Node000023"><a xlink:title=" ">
<path fill="none" stroke="#63b8ff" d="M73.34,-848.54C90.55,-840.32 115.59,-828.97 138.25,-821 143.61,-819.11 149.26,-817.31 154.93,-815.61"/>
<polygon fill="#63b8ff" stroke="#63b8ff" points="155.69,-819.04 164.34,-812.92 153.76,-812.31 155.69,-819.04"/>
</a>
</g>
</g>
<!-- Node24 -->
<g id="Node000024" class="node">
<title>Node24</title>
<g id="a_Node000024"><a xlink:href="group__adxl362__basic__driver.html#ga304ef8a498d3ff0f0988bcfa8fb03258" target="_top" xlink:title="set the fifo sample">
<polygon fill="white" stroke="#666666" points="272.38,-774 148.38,-774 148.38,-754 272.38,-754 272.38,-774"/>
<text xml:space="preserve" text-anchor="middle" x="210.38" y="-760.5" font-family="Helvetica,sans-Serif" font-size="10.00">adxl362_set_fifo_sample</text>
</a>
</g>
</g>
<!-- Node1&#45;&gt;Node24 -->
<g id="edge23_Node000001_Node000024" class="edge">
<title>Node1&#45;&gt;Node24</title>
<g id="a_edge23_Node000001_Node000024"><a xlink:title=" ">
<path fill="none" stroke="#63b8ff" d="M60.82,-848.73C75.24,-832.36 105.73,-800.43 138.25,-783 141.31,-781.36 144.51,-779.86 147.8,-778.48"/>
<polygon fill="#63b8ff" stroke="#63b8ff" points="148.96,-781.78 157.1,-775.01 146.51,-775.22 148.96,-781.78"/>
</a>
</g>
</g>
<!-- Node25 -->
<g id="Node000025" class="node">
<title>Node25</title>
<g id="a_Node000025"><a xlink:href="group__adxl362__basic__driver.html#gab24ca1a07ed33d83395e6a8a3719fad1" target="_top" xlink:title="enable or disable saving temperature data to fifo">
<polygon fill="white" stroke="#666666" points="282.5,-736 138.25,-736 138.25,-716 282.5,-716 282.5,-736"/>
<text xml:space="preserve" text-anchor="middle" x="210.38" y="-722.5" font-family="Helvetica,sans-Serif" font-size="10.00">adxl362_set_fifo_temperature</text>
</a>
</g>
</g>
<!-- Node1&#45;&gt;Node25 -->
<g id="edge24_Node000001_Node000025" class="edge">
<title>Node1&#45;&gt;Node25</title>
<g id="a_edge24_Node000001_Node000025"><a xlink:title=" ">
<path fill="none" stroke="#63b8ff" d="M56.94,-848.66C67.97,-826.16 97.3,-772.56 138.25,-745 140.24,-743.66 142.32,-742.42 144.46,-741.26"/>
<polygon fill="#63b8ff" stroke="#63b8ff" points="145.9,-744.45 153.52,-737.09 142.97,-738.09 145.9,-744.45"/>
</a>
</g>
</g>
<!-- Node26 -->
<g id="Node000026" class="node">
<title>Node26</title>
<g id="a_Node000026"><a xlink:href="group__adxl362__basic__driver.html#gacee9c11cbd97c0acf357d1c62d52214b" target="_top" xlink:title="enable or disable inactivity">
<polygon fill="white" stroke="#666666" points="266.75,-698 154,-698 154,-678 266.75,-678 266.75,-698"/>
<text xml:space="preserve" text-anchor="middle" x="210.38" y="-684.5" font-family="Helvetica,sans-Serif" font-size="10.00">adxl362_set_inactivity</text>
</a>
</g>
</g>
<!-- Node1&#45;&gt;Node26 -->
<g id="edge25_Node000001_Node000026" class="edge">
<title>Node1&#45;&gt;Node26</title>
<g id="a_edge25_Node000001_Node000026"><a xlink:title=" ">
<path fill="none" stroke="#63b8ff" d="M54.92,-848.65C62.93,-821.08 88.58,-745.4 138.25,-707 139.99,-705.65 141.83,-704.4 143.73,-703.23"/>
<polygon fill="#63b8ff" stroke="#63b8ff" points="145.05,-706.49 152.36,-698.81 141.86,-700.26 145.05,-706.49"/>
</a>
</g>
</g>
<!-- Node27 -->
<g id="Node000027" class="node">
<title>Node27</title>
<g id="a_Node000027"><a xlink:href="group__adxl362__basic__driver.html#ga2c9c4376ec84b9c63602c3b890efc48e" target="_top" xlink:title="set the inactivity detect trigger mode">
<polygon fill="white" stroke="#666666" points="266.75,-660 154,-660 154,-628 266.75,-628 266.75,-660"/>
<text xml:space="preserve" text-anchor="start" x="162" y="-646.5" font-family="Helvetica,sans-Serif" font-size="10.00">adxl362_set_inactivity</text>
<text xml:space="preserve" text-anchor="middle" x="210.38" y="-634.5" font-family="Helvetica,sans-Serif" font-size="10.00">_detect_trigger</text>
</a>
</g>
</g>
<!-- Node1&#45;&gt;Node27 -->
<g id="edge26_Node000001_Node000027" class="edge">
<title>Node1&#45;&gt;Node27</title>
<g id="a_edge26_Node000001_Node000027"><a xlink:title=" ">
<path fill="none" stroke="#63b8ff" d="M53.87,-848.69C59.72,-817.13 81.63,-720.86 138.25,-669 140.09,-667.31 142.06,-665.74 144.11,-664.27"/>
<polygon fill="#63b8ff" stroke="#63b8ff" points="145.62,-667.45 152.34,-659.26 141.98,-661.47 145.62,-667.45"/>
</a>
</g>
</g>
<!-- Node28 -->
<g id="Node000028" class="node">
<title>Node28</title>
<g id="a_Node000028"><a xlink:href="group__adxl362__basic__driver.html#ga6196c81ae16b9827171aac19c7283cde" target="_top" xlink:title="set the inactivity threshold">
<polygon fill="white" stroke="#666666" points="266.75,-610 154,-610 154,-578 266.75,-578 266.75,-610"/>
<text xml:space="preserve" text-anchor="start" x="162" y="-596.5" font-family="Helvetica,sans-Serif" font-size="10.00">adxl362_set_inactivity</text>
<text xml:space="preserve" text-anchor="middle" x="210.38" y="-584.5" font-family="Helvetica,sans-Serif" font-size="10.00">_threshold</text>
</a>
</g>
</g>
<!-- Node1&#45;&gt;Node28 -->
<g id="edge27_Node000001_Node000028" class="edge">
<title>Node1&#45;&gt;Node28</title>
<g id="a_edge27_Node000001_Node000028"><a xlink:title=" ">
<path fill="none" stroke="#63b8ff" d="M52.77,-848.7C55.6,-812.07 70.1,-686.7 138.25,-619 140.06,-617.2 142.01,-615.53 144.06,-613.98"/>
<polygon fill="#63b8ff" stroke="#63b8ff" points="145.78,-617.04 152.36,-608.73 142.04,-611.12 145.78,-617.04"/>
</a>
</g>
</g>
<!-- Node29 -->
<g id="Node000029" class="node">
<title>Node29</title>
<g id="a_Node000029"><a xlink:href="group__adxl362__basic__driver.html#ga348040ea4c27ce5192a9cd148e3194b5" target="_top" xlink:title="set the inactivity time">
<polygon fill="white" stroke="#666666" points="278.75,-560 142,-560 142,-540 278.75,-540 278.75,-560"/>
<text xml:space="preserve" text-anchor="middle" x="210.38" y="-546.5" font-family="Helvetica,sans-Serif" font-size="10.00">adxl362_set_inactivity_time</text>
</a>
</g>
</g>
<!-- Node1&#45;&gt;Node29 -->
<g id="edge28_Node000001_Node000029" class="edge">
<title>Node1&#45;&gt;Node29</title>
<g id="a_edge28_Node000001_Node000029"><a xlink:title=" ">
<path fill="none" stroke="#63b8ff" d="M51.85,-848.76C51.31,-807.25 55.05,-649.93 138.25,-569 139.14,-568.13 140.07,-567.3 141.03,-566.51"/>
<polygon fill="#63b8ff" stroke="#63b8ff" points="142.72,-569.59 149.14,-561.15 138.86,-563.74 142.72,-569.59"/>
</a>
</g>
</g>
<!-- Node30 -->
<g id="Node000030" class="node">
<title>Node30</title>
<g id="a_Node000030"><a xlink:href="group__adxl362__basic__driver.html#gaa4565963e38c62604c352385a81cbe04" target="_top" xlink:title="set the interrupt pin1 active level">
<polygon fill="white" stroke="#666666" points="264.88,-522 155.88,-522 155.88,-490 264.88,-490 264.88,-522"/>
<text xml:space="preserve" text-anchor="start" x="163.88" y="-508.5" font-family="Helvetica,sans-Serif" font-size="10.00">adxl362_set_interrupt</text>
<text xml:space="preserve" text-anchor="middle" x="210.38" y="-496.5" font-family="Helvetica,sans-Serif" font-size="10.00">_pin1_active_level</text>
</a>
</g>
</g>
<!-- Node1&#45;&gt;Node30 -->
<g id="edge29_Node000001_Node000030" class="edge">
<title>Node1&#45;&gt;Node30</title>
<g id="a_edge29_Node000001_Node000030"><a xlink:title=" ">
<path fill="none" stroke="#63b8ff" d="M51.6,-848.57C49.95,-803.98 49.46,-627.31 138.25,-531 140.61,-528.44 143.26,-526.14 146.09,-524.07"/>
<polygon fill="#63b8ff" stroke="#63b8ff" points="147.68,-527.2 154.42,-519.03 144.05,-521.21 147.68,-527.2"/>
</a>
</g>
</g>
<!-- Node31 -->
<g id="Node000031" class="node">
<title>Node31</title>
<g id="a_Node000031"><a xlink:href="group__adxl362__basic__driver.html#gabc6e549ad5cbd79edd0747b716c3a042" target="_top" xlink:title="enable or disable interrupt pin1 as the external clock">
<polygon fill="white" stroke="#666666" points="272,-472 148.75,-472 148.75,-440 272,-440 272,-472"/>
<text xml:space="preserve" text-anchor="start" x="156.75" y="-458.5" font-family="Helvetica,sans-Serif" font-size="10.00">adxl362_set_interrupt</text>
<text xml:space="preserve" text-anchor="middle" x="210.38" y="-446.5" font-family="Helvetica,sans-Serif" font-size="10.00">_pin1_as_external_clock</text>
</a>
</g>
</g>
<!-- Node1&#45;&gt;Node31 -->
<g id="edge30_Node000001_Node000031" class="edge">
<title>Node1&#45;&gt;Node31</title>
<g id="a_edge30_Node000001_Node000031"><a xlink:title=" ">
<path fill="none" stroke="#63b8ff" d="M53.12,-848.84C58.64,-794.48 87.06,-538.38 138.25,-481 138.71,-480.48 139.19,-479.97 139.67,-479.48"/>
<polygon fill="#63b8ff" stroke="#63b8ff" points="141.71,-482.33 147.2,-473.27 137.26,-476.93 141.71,-482.33"/>
</a>
</g>
</g>
<!-- Node32 -->
<g id="Node000032" class="node">
<title>Node32</title>
<g id="a_Node000032"><a xlink:href="group__adxl362__basic__driver.html#ga722d68700b98fe4ab35903258ec9052b" target="_top" xlink:title="set the interrupt pin1 map">
<polygon fill="white" stroke="#666666" points="264.88,-422 155.88,-422 155.88,-390 264.88,-390 264.88,-422"/>
<text xml:space="preserve" text-anchor="start" x="163.88" y="-408.5" font-family="Helvetica,sans-Serif" font-size="10.00">adxl362_set_interrupt</text>
<text xml:space="preserve" text-anchor="middle" x="210.38" y="-396.5" font-family="Helvetica,sans-Serif" font-size="10.00">_pin1_map</text>
</a>
</g>
</g>
<!-- Node1&#45;&gt;Node32 -->
<g id="edge31_Node000001_Node000032" class="edge">
<title>Node1&#45;&gt;Node32</title>
<g id="a_edge31_Node000001_Node000032"><a xlink:title=" ">
<path fill="none" stroke="#63b8ff" d="M52.84,-848.69C57.11,-789.84 81.06,-496.78 138.25,-431 140.54,-428.37 143.12,-426.01 145.91,-423.91"/>
<polygon fill="#63b8ff" stroke="#63b8ff" points="147.5,-427.04 154.14,-418.79 143.8,-421.1 147.5,-427.04"/>
</a>
</g>
</g>
<!-- Node33 -->
<g id="Node000033" class="node">
<title>Node33</title>
<g id="a_Node000033"><a xlink:href="group__adxl362__basic__driver.html#ga53d0c394247a9337e14db6b02f101ae8" target="_top" xlink:title="set the interrupt pin2 active level">
<polygon fill="white" stroke="#666666" points="264.88,-372 155.88,-372 155.88,-340 264.88,-340 264.88,-372"/>
<text xml:space="preserve" text-anchor="start" x="163.88" y="-358.5" font-family="Helvetica,sans-Serif" font-size="10.00">adxl362_set_interrupt</text>
<text xml:space="preserve" text-anchor="middle" x="210.38" y="-346.5" font-family="Helvetica,sans-Serif" font-size="10.00">_pin2_active_level</text>
</a>
</g>
</g>
<!-- Node1&#45;&gt;Node33 -->
<g id="edge32_Node000001_Node000033" class="edge">
<title>Node1&#45;&gt;Node33</title>
<g id="a_edge32_Node000001_Node000033"><a xlink:title=" ">
<path fill="none" stroke="#63b8ff" d="M52.6,-848.75C55.71,-786.11 74.96,-455.3 138.25,-381 140.55,-378.3 143.16,-375.89 146,-373.74"/>
<polygon fill="#63b8ff" stroke="#63b8ff" points="147.75,-376.77 154.39,-368.52 144.05,-370.83 147.75,-376.77"/>
</a>
</g>
</g>
<!-- Node34 -->
<g id="Node000034" class="node">
<title>Node34</title>
<g id="a_Node000034"><a xlink:href="group__adxl362__basic__driver.html#gad9c158c9d5b43f44ba1ca1121af00f7e" target="_top" xlink:title="enable or disable interrupt pin2 as the external sampling trigger">
<polygon fill="white" stroke="#666666" points="279.88,-322 140.88,-322 140.88,-278 279.88,-278 279.88,-322"/>
<text xml:space="preserve" text-anchor="start" x="148.88" y="-308.5" font-family="Helvetica,sans-Serif" font-size="10.00">adxl362_set_interrupt</text>
<text xml:space="preserve" text-anchor="start" x="148.88" y="-296.5" font-family="Helvetica,sans-Serif" font-size="10.00">_pin2_as_external_sampling</text>
<text xml:space="preserve" text-anchor="middle" x="210.38" y="-284.5" font-family="Helvetica,sans-Serif" font-size="10.00">_trigger</text>
</a>
</g>
</g>
<!-- Node1&#45;&gt;Node34 -->
<g id="edge33_Node000001_Node000034" class="edge">
<title>Node1&#45;&gt;Node34</title>
<g id="a_edge33_Node000001_Node000034"><a xlink:title=" ">
<path fill="none" stroke="#63b8ff" d="M52.49,-848.62C55.05,-782.16 71.99,-416.25 138.25,-331 138.4,-330.8 138.56,-330.6 138.72,-330.41"/>
<polygon fill="#63b8ff" stroke="#63b8ff" points="141.09,-332.98 145.68,-323.43 136.14,-328.04 141.09,-332.98"/>
</a>
</g>
</g>
<!-- Node35 -->
<g id="Node000035" class="node">
<title>Node35</title>
<g id="a_Node000035"><a xlink:href="group__adxl362__basic__driver.html#ga1b6cd0575d24e065a27408d7e3a9934a" target="_top" xlink:title="set the interrupt pin2 map">
<polygon fill="white" stroke="#666666" points="264.88,-260 155.88,-260 155.88,-228 264.88,-228 264.88,-260"/>
<text xml:space="preserve" text-anchor="start" x="163.88" y="-246.5" font-family="Helvetica,sans-Serif" font-size="10.00">adxl362_set_interrupt</text>
<text xml:space="preserve" text-anchor="middle" x="210.38" y="-234.5" font-family="Helvetica,sans-Serif" font-size="10.00">_pin2_map</text>
</a>
</g>
</g>
<!-- Node1&#45;&gt;Node35 -->
<g id="edge34_Node000001_Node000035" class="edge">
<title>Node1&#45;&gt;Node35</title>
<g id="a_edge34_Node000001_Node000035"><a xlink:title=" ">
<path fill="none" stroke="#63b8ff" d="M52.22,-848.75C53.06,-778.02 61.26,-362.5 138.25,-269 140.51,-266.26 143.08,-263.82 145.89,-261.65"/>
<polygon fill="#63b8ff" stroke="#63b8ff" points="147.64,-264.68 154.22,-256.38 143.9,-258.76 147.64,-264.68"/>
</a>
</g>
</g>
<!-- Node36 -->
<g id="Node000036" class="node">
<title>Node36</title>
<g id="a_Node000036"><a xlink:href="group__adxl362__basic__driver.html#gac63915e71f46c7d59a2a340e81e7fc47" target="_top" xlink:title="set the chip mode">
<polygon fill="white" stroke="#666666" points="259.25,-210 161.5,-210 161.5,-190 259.25,-190 259.25,-210"/>
<text xml:space="preserve" text-anchor="middle" x="210.38" y="-196.5" font-family="Helvetica,sans-Serif" font-size="10.00">adxl362_set_mode</text>
</a>
</g>
</g>
<!-- Node1&#45;&gt;Node36 -->
<g id="edge35_Node000001_Node000036" class="edge">
<title>Node1&#45;&gt;Node36</title>
<g id="a_edge35_Node000001_Node000036"><a xlink:title=" ">
<path fill="none" stroke="#63b8ff" d="M52.01,-848.78C51.4,-774.53 51.21,-317.88 138.25,-219 141.72,-215.06 145.9,-211.9 150.48,-209.36"/>
<polygon fill="#63b8ff" stroke="#63b8ff" points="151.87,-212.57 159.63,-205.36 149.07,-206.16 151.87,-212.57"/>
</a>
</g>
</g>
<!-- Node37 -->
<g id="Node000037" class="node">
<title>Node37</title>
<g id="a_Node000037"><a xlink:href="group__adxl362__basic__driver.html#ga7b2d5db002dd4b992b1716b1de25b182" target="_top" xlink:title="set the noise mode">
<polygon fill="white" stroke="#666666" points="273.5,-172 147.25,-172 147.25,-152 273.5,-152 273.5,-172"/>
<text xml:space="preserve" text-anchor="middle" x="210.38" y="-158.5" font-family="Helvetica,sans-Serif" font-size="10.00">adxl362_set_noise_mode</text>
</a>
</g>
</g>
<!-- Node1&#45;&gt;Node37 -->
<g id="edge36_Node000001_Node000037" class="edge">
<title>Node1&#45;&gt;Node37</title>
<g id="a_edge36_Node000001_Node000037"><a xlink:title=" ">
<path fill="none" stroke="#63b8ff" d="M51.93,-848.68C50.64,-771.61 46.33,-286.22 138.25,-181 138.71,-180.47 139.18,-179.96 139.67,-179.46"/>
<polygon fill="#63b8ff" stroke="#63b8ff" points="141.6,-182.39 147.27,-173.44 137.26,-176.91 141.6,-182.39"/>
</a>
</g>
</g>
<!-- Node38 -->
<g id="Node000038" class="node">
<title>Node38</title>
<g id="a_Node000038"><a xlink:href="group__adxl362__basic__driver.html#gaff431474d1e12d2f38a92cba97af5745" target="_top" xlink:title="set the output data rate">
<polygon fill="white" stroke="#666666" points="254,-134 166.75,-134 166.75,-114 254,-114 254,-134"/>
<text xml:space="preserve" text-anchor="middle" x="210.38" y="-120.5" font-family="Helvetica,sans-Serif" font-size="10.00">adxl362_set_odr</text>
</a>
</g>
</g>
<!-- Node1&#45;&gt;Node38 -->
<g id="edge37_Node000001_Node000038" class="edge">
<title>Node1&#45;&gt;Node38</title>
<g id="a_edge37_Node000001_Node000038"><a xlink:title=" ">
<path fill="none" stroke="#63b8ff" d="M52.67,-848.68C57.22,-764.98 89.63,-199.03 138.25,-143 142.98,-137.55 149.08,-133.58 155.72,-130.7"/>
<polygon fill="#63b8ff" stroke="#63b8ff" points="156.71,-134.06 165.04,-127.52 154.44,-127.44 156.71,-134.06"/>
</a>
</g>
</g>
<!-- Node39 -->
<g id="Node000039" class="node">
<title>Node39</title>
<g id="a_Node000039"><a xlink:href="group__adxl362__basic__driver.html#ga17145b1a5c9e0254bb22ab35419cd554" target="_top" xlink:title="set the measurement range">
<polygon fill="white" stroke="#666666" points="259.25,-96 161.5,-96 161.5,-76 259.25,-76 259.25,-96"/>
<text xml:space="preserve" text-anchor="middle" x="210.38" y="-82.5" font-family="Helvetica,sans-Serif" font-size="10.00">adxl362_set_range</text>
</a>
</g>
</g>
<!-- Node1&#45;&gt;Node39 -->
<g id="edge38_Node000001_Node000039" class="edge">
<title>Node1&#45;&gt;Node39</title>
<g id="a_edge38_Node000001_Node000039"><a xlink:title=" ">
<path fill="none" stroke="#63b8ff" d="M52.61,-848.68C56.74,-762.52 87.15,-164.24 138.25,-105 141.82,-100.86 146.18,-97.58 150.97,-94.97"/>
<polygon fill="#63b8ff" stroke="#63b8ff" points="152.09,-98.3 159.89,-91.14 149.32,-91.87 152.09,-98.3"/>
</a>
</g>
</g>
<!-- Node40 -->
<g id="Node000040" class="node">
<title>Node40</title>
<g id="a_Node000040"><a xlink:href="group__adxl362__basic__driver.html#ga4e57ac3652bda25bc67c9350da542558" target="_top" xlink:title="enable or disable the self test">
<polygon fill="white" stroke="#666666" points="266,-58 154.75,-58 154.75,-38 266,-38 266,-58"/>
<text xml:space="preserve" text-anchor="middle" x="210.38" y="-44.5" font-family="Helvetica,sans-Serif" font-size="10.00">adxl362_set_self_test</text>
</a>
</g>
</g>
<!-- Node1&#45;&gt;Node40 -->
<g id="edge39_Node000001_Node000040" class="edge">
<title>Node1&#45;&gt;Node40</title>
<g id="a_edge39_Node000001_Node000040"><a xlink:title=" ">
<path fill="none" stroke="#63b8ff" d="M52.55,-848.73C56.28,-760.32 84.67,-129.46 138.25,-67 140.18,-64.75 142.34,-62.75 144.68,-60.98"/>
<polygon fill="#63b8ff" stroke="#63b8ff" points="146.33,-64.07 153.15,-55.97 142.76,-58.05 146.33,-64.07"/>
</a>
</g>
</g>
<!-- Node41 -->
<g id="Node000041" class="node">
<title>Node41</title>
<g id="a_Node000041"><a xlink:href="group__adxl362__basic__driver.html#ga5f5f20b381d785a97bf8a6aa95a25896" target="_top" xlink:title="enable or disable chip wake up">
<polygon fill="white" stroke="#666666" points="266.75,-20 154,-20 154,0 266.75,0 266.75,-20"/>
<text xml:space="preserve" text-anchor="middle" x="210.38" y="-6.5" font-family="Helvetica,sans-Serif" font-size="10.00">adxl362_set_wake_up</text>
</a>
</g>
</g>
<!-- Node1&#45;&gt;Node41 -->
<g id="edge40_Node000001_Node000041" class="edge">
<title>Node1&#45;&gt;Node41</title>
<g id="a_edge40_Node000001_Node000041"><a xlink:title=" ">
<path fill="none" stroke="#63b8ff" d="M52.5,-848.53C55.89,-756.99 82.23,-94.63 138.25,-29 140.1,-26.83 142.17,-24.9 144.41,-23.17"/>
<polygon fill="#63b8ff" stroke="#63b8ff" points="145.71,-26.47 152.44,-18.29 142.08,-20.49 145.71,-26.47"/>
</a>
</g>
</g>
</g>
</svg>
